M48
;Layer_Color=5724256
;FILE_FORMAT=4:3
METRIC,TZ
;TYPE=PLATED
T1F00S00C0.381
T2F00S00C0.400
T3F00S00C0.500
T4F00S00C1.020
;TYPE=NON_PLATED
T5F00S00C0.970
T6F00S00C1.780
T7F00S00C2.750
%
T01
X6950Y4900
X10175Y3850
X12625Y3925
X13376Y2251
X14075Y8175
X13663Y9212
X13750Y14400
X20200Y14375
X21275Y14175
X24600Y12875
X25700Y12200
X23550Y10700
X23425Y7400
X21700Y6400
X20500Y8750
X20300Y10100
X18400Y11075
X17500Y9500
X18000Y7900
Y6500
X18050Y4550
X16175Y5400
X16000Y8500
X25450Y8250
X45575Y12100
Y12850
Y13600
X53020Y12750
X52200Y11725
X53220Y9925
X54045Y9100
X54045Y10750
X53570Y6950
X52745Y6125
X53570Y5300
X57155Y6225
X57980Y7050
X57155Y7875
X56865Y9100
X57690Y9925
X56865Y10750
X58575Y11575
X59300
X60025
X59825Y13325
X57750Y13175
X56500Y14250
X55000Y14250
X63850Y13700
X63500Y11400
X64425Y11125
X64300Y6050
X63850Y15200
X64300Y18475
X61900Y17500
X59625Y17025
X58850
X57725Y17400
X57775Y18650
X57050Y18300
X57075Y19075
Y19900
X58375Y19300
X59625Y19025
Y20025
Y18025
Y16025
X56500Y15750
X55750Y15000
X55000Y15750
X56000Y17900
X60600Y22050
X64000Y24525
X58500Y29750
X52625Y27025
X53175Y25825
X50250Y27775
X47725
Y25225
Y23775
X48750Y22450
X48825Y21275
X47800Y20900
Y20100
X45800
Y20900
X50850Y21000
X49975Y22025
X52850Y18825
Y18000
X52600Y17250
X53200Y16700
X53600Y19575
X40325Y17925
X36725Y17675
X37500Y20000
X38500Y20500
X38350Y22250
X40125Y21675
X40150Y26950
Y28300
X42650Y27775
X45000Y27900
X37550Y27775
X35300Y27800
X35025Y25225
Y22725
X33900Y21700
X34500Y20000
X31625Y19400
X30625
X30200Y20800
X31550Y21550
X32175Y22375
X29975Y22725
Y25225
X30200Y27675
X27450Y27740
X27475Y29700
X25100Y25900
X22325Y25225
X22350Y23350
X23250Y22125
X24130
X24750Y19650
Y18500
X25600Y17200
X24600Y15825
X22750Y16775
X21500Y17300
X20500Y19125
X19625Y20875
X19025Y21575
X17050Y22150
X17400Y20225
X14875Y21450
Y22925
X14700Y27775
X17250
X19775
X22375Y14950
X13750Y18250
X14600Y20200
X12450Y21125
X11325Y21700
X9975Y19825
X8975Y19600
X8950Y18150
X10500Y18900
X7000Y20850
X6150Y21500
X7175Y23275
X975Y23025
Y22175
Y23875
X925Y17150
X2525Y16250
X12150Y25225
Y26475
X14650
T02
X18400Y14525
X30250Y7725
X45250Y9725
X55360Y23790
X57905Y23785
X50275Y29175
X47750
X45200
X42650
X40125Y23785
X37580Y23790
X27450Y23775
X25900Y21725
X24885Y29225
X22340Y29230
X19775Y25200
X17275
X14725Y29225
X29950Y29175
X32500
X45575Y17425
Y16400
X19700Y16825
X9650Y24175
X9635Y29175
X7095
X12185
T03
X11450Y4550
X15750Y2350
X14725Y1275
X20400Y15600
X20925Y22025
X22175Y22325
X25400Y20450
T04
X17600Y1500
X20140
T05
X56630Y25230
Y27770
X54090
X51550
X49010
X46470
X43930
X41390
X38850
X36310
X33770
X31230
X28690
X26150
X23610
X21070
X18530
X15990
Y25230
X18530
X21070
X23610
X26150
X28690
X31230
X33770
X36310
X38850
X41390
X43930
X46470
X49010
X51550
X54090
X13450
X10910
X8370
Y27770
X10910
X13450
T06
X55360Y26500
X9640
T07
X3500Y3500
X61500
X61500Y26500
X3500
M30
