G04 Layer_Physical_Order=1*
G04 Layer_Color=255*
%FSLAX43Y43*%
%MOMM*%
G71*
G01*
G75*
%ADD10R,0.300X0.800*%
%ADD11R,0.800X0.300*%
%ADD12R,2.400X2.400*%
%ADD13R,1.800X1.800*%
%ADD14R,3.400X1.500*%
%ADD15R,3.500X1.000*%
%ADD16R,0.550X1.700*%
%ADD17R,1.000X0.900*%
%ADD18R,0.600X0.500*%
%ADD19R,0.600X0.600*%
%ADD20R,0.525X0.510*%
%ADD21R,0.900X1.000*%
%ADD22R,0.500X0.600*%
%ADD23R,0.600X0.900*%
%ADD24R,0.450X0.320*%
%ADD25R,0.320X0.450*%
%ADD26R,0.510X0.525*%
%ADD27R,0.500X0.800*%
%ADD28R,0.600X0.600*%
%ADD29R,0.580X0.300*%
%ADD30R,0.350X0.630*%
%ADD31R,0.400X0.500*%
%ADD32R,0.500X0.400*%
%ADD33R,1.400X1.600*%
%ADD34R,0.650X0.300*%
%ADD35R,0.322X0.450*%
%ADD36R,0.450X0.322*%
%ADD37R,0.450X0.900*%
%ADD38R,3.000X1.200*%
%ADD39R,0.540X0.500*%
%ADD40R,0.900X0.800*%
%ADD41R,0.500X0.540*%
%ADD42R,1.000X1.050*%
%ADD43R,1.050X2.200*%
%ADD44C,0.750*%
%ADD45R,1.200X1.800*%
%ADD46R,0.900X0.700*%
%ADD47C,0.800*%
%ADD48C,0.152*%
%ADD49C,0.300*%
%ADD50C,0.200*%
%ADD51C,0.250*%
%ADD52C,0.255*%
%ADD53C,1.000*%
%ADD54C,0.600*%
%ADD55C,0.500*%
%ADD56C,0.750*%
%ADD57C,0.400*%
%ADD58C,0.125*%
%ADD59C,1.000*%
%ADD60C,1.500*%
%ADD61R,1.500X1.500*%
%ADD62C,0.800*%
%ADD63C,0.635*%
G36*
X52213Y14486D02*
Y14012D01*
X51600D01*
Y14025D01*
X49900D01*
Y11725D01*
X51600D01*
Y12988D01*
X52355D01*
Y13167D01*
X52925D01*
X53052Y13193D01*
X53160Y13265D01*
X53495Y13600D01*
X54350D01*
Y12916D01*
X53864Y12430D01*
X53388D01*
Y11880D01*
X52793Y11285D01*
X52128D01*
X52053Y11343D01*
X51895Y11408D01*
X51725Y11431D01*
X51555Y11408D01*
X51397Y11343D01*
X51261Y11239D01*
X50728Y10706D01*
X47447D01*
X47231Y10922D01*
Y14248D01*
X50949D01*
X50949Y14248D01*
X51079Y14274D01*
X51105Y14279D01*
X51238Y14368D01*
X51412Y14542D01*
X52156D01*
X52213Y14486D01*
D02*
G37*
G36*
X60090Y19874D02*
Y15660D01*
X59355D01*
Y15663D01*
X58400D01*
Y15980D01*
X58435Y16015D01*
X58435Y16015D01*
X58507Y16123D01*
X58533Y16250D01*
X58533Y16250D01*
Y16987D01*
X58610Y17065D01*
X58682Y17173D01*
X58708Y17300D01*
Y18840D01*
X58780Y18895D01*
X58871Y19014D01*
X58928Y19152D01*
X58947Y19300D01*
X58928Y19448D01*
X58871Y19586D01*
X58780Y19705D01*
X58661Y19796D01*
X58523Y19853D01*
X58375Y19872D01*
X58227Y19853D01*
X58089Y19796D01*
X57970Y19705D01*
X57879Y19586D01*
X57822Y19448D01*
X57812Y19371D01*
X57775Y19222D01*
X57627Y19203D01*
X57489Y19146D01*
X57370Y19055D01*
X57279Y18936D01*
X57222Y18798D01*
X57203Y18650D01*
X57222Y18502D01*
X57279Y18364D01*
X57351Y18271D01*
X57162Y18083D01*
X56625D01*
X56498Y18057D01*
X56390Y17985D01*
X56090Y17685D01*
X56066Y17650D01*
X55658D01*
Y18145D01*
X55932D01*
Y18995D01*
Y20005D01*
X55932D01*
X55931Y20006D01*
X55932Y20265D01*
X59699D01*
X60090Y19874D01*
D02*
G37*
G36*
X20017Y17212D02*
Y16849D01*
X20043Y16722D01*
X20115Y16614D01*
X20254Y16475D01*
X20239Y16433D01*
X20189Y16324D01*
X20022Y16255D01*
X19865Y16135D01*
X19745Y15978D01*
X19669Y15796D01*
X19644Y15600D01*
X19664Y15441D01*
X19012Y14788D01*
X18923Y14656D01*
X18892Y14500D01*
X18892Y14500D01*
Y13925D01*
X18800D01*
Y12725D01*
X18000D01*
Y13925D01*
X17000D01*
Y12721D01*
X16964Y12615D01*
X16863Y12587D01*
X15945D01*
Y11562D01*
X15945D01*
X16003Y11509D01*
X15953Y11357D01*
X15725D01*
Y11410D01*
X15008D01*
Y14581D01*
X15502Y15075D01*
X17025D01*
Y15113D01*
X17830D01*
Y15120D01*
X18638D01*
Y16130D01*
X18525D01*
Y17520D01*
X17875D01*
Y17520D01*
X17758D01*
X17693Y17660D01*
X17763Y17792D01*
X17890Y17818D01*
X17998Y17890D01*
X18285Y18177D01*
X18357Y18285D01*
X18383Y18412D01*
Y18520D01*
X18710D01*
X20017Y17212D01*
D02*
G37*
G36*
X57100Y15600D02*
X57994D01*
X58069Y15448D01*
X58038Y15408D01*
X57750D01*
X57711Y15400D01*
X57100D01*
Y14100D01*
X58300D01*
Y13775D01*
X59400D01*
Y14640D01*
X60090D01*
Y12935D01*
X59255D01*
Y12938D01*
X58245D01*
Y12833D01*
X57269D01*
X57158Y12944D01*
Y13000D01*
X57150Y13039D01*
Y13650D01*
X54400D01*
Y14100D01*
Y15100D01*
Y16350D01*
X57100D01*
Y15600D01*
D02*
G37*
G36*
X54912Y20157D02*
X54911Y20005D01*
X54908D01*
Y19330D01*
X53963D01*
Y18320D01*
Y17495D01*
X54342D01*
Y17000D01*
X54350Y16961D01*
Y16400D01*
X53855D01*
X53753Y16552D01*
X53772Y16700D01*
X53753Y16848D01*
X53696Y16986D01*
X53605Y17105D01*
X53486Y17196D01*
X53348Y17253D01*
X53200Y17272D01*
X53170Y17268D01*
X53153Y17398D01*
X53096Y17536D01*
X53005Y17655D01*
X52886Y17746D01*
X52748Y17803D01*
X52600Y17822D01*
X52452Y17803D01*
X52314Y17746D01*
X52195Y17655D01*
X52104Y17536D01*
X52047Y17398D01*
X52028Y17250D01*
X52047Y17102D01*
X52104Y16964D01*
X52195Y16845D01*
X52267Y16790D01*
Y16188D01*
X51345D01*
Y16008D01*
X49355D01*
X49200Y16163D01*
Y18025D01*
X47500D01*
Y15725D01*
X48697D01*
X48982Y15440D01*
X49090Y15368D01*
X49218Y15342D01*
X49218Y15342D01*
X50843D01*
X50906Y15190D01*
X50780Y15064D01*
X47231D01*
Y18500D01*
X47500D01*
Y18520D01*
X51800D01*
X51963Y18541D01*
X52115Y18604D01*
X52246Y18704D01*
X52346Y18835D01*
X52409Y18987D01*
X52417Y19046D01*
X53636Y20265D01*
X54805D01*
X54912Y20157D01*
D02*
G37*
G36*
X25410Y18645D02*
X25410Y18645D01*
X25518Y18573D01*
X25638Y18549D01*
X25676Y18492D01*
X25711Y18406D01*
X25562Y18258D01*
X24475D01*
Y18411D01*
X23726D01*
Y18589D01*
X24475D01*
Y18742D01*
X25312D01*
X25410Y18645D01*
D02*
G37*
G36*
X8827Y19047D02*
X8938Y19032D01*
X9863Y18107D01*
Y17185D01*
X9890Y17048D01*
X9968Y16933D01*
X10278Y16623D01*
X10393Y16545D01*
X10530Y16518D01*
X11895D01*
X12032Y16545D01*
X12147Y16623D01*
X12545Y17020D01*
X12850D01*
Y16875D01*
X13850D01*
Y15975D01*
X14925D01*
Y15652D01*
X14312Y15038D01*
X14223Y14906D01*
X14192Y14750D01*
X14192Y14750D01*
Y13050D01*
X13250D01*
Y13010D01*
X13000D01*
Y13250D01*
X11049D01*
X11000Y13256D01*
X9063D01*
X8856Y13463D01*
Y15800D01*
X8856Y15800D01*
X8831Y15996D01*
X8755Y16178D01*
X8635Y16335D01*
X8635Y16335D01*
X7935Y17035D01*
X7778Y17155D01*
X7600Y17229D01*
Y19050D01*
X8650D01*
X8650Y19050D01*
Y19050D01*
X8802Y19057D01*
X8827Y19047D01*
D02*
G37*
G36*
X21774Y18025D02*
X21774Y18024D01*
X21775Y18024D01*
X21839D01*
Y17275D01*
X21839D01*
X21849Y17122D01*
X21802Y17076D01*
X21730Y16968D01*
X21705Y16840D01*
Y16615D01*
X21564Y16556D01*
X21058Y17063D01*
Y18089D01*
X21774D01*
Y18025D01*
D02*
G37*
G36*
X14714Y18116D02*
X14655Y17975D01*
X12850D01*
Y17840D01*
X12046D01*
X11983Y17992D01*
X12455Y18465D01*
X13300D01*
Y18542D01*
X14287D01*
X14714Y18116D01*
D02*
G37*
G36*
X22839Y17275D02*
X22917D01*
Y17050D01*
X22943Y16923D01*
X23015Y16815D01*
X23050Y16780D01*
Y16150D01*
X23955D01*
X24057Y15997D01*
X24047Y15973D01*
X24028Y15825D01*
X24047Y15677D01*
X24104Y15539D01*
X24192Y15424D01*
Y13276D01*
X24104Y13161D01*
X24047Y13023D01*
X24028Y12875D01*
X24047Y12727D01*
X24104Y12589D01*
X24195Y12470D01*
X24314Y12379D01*
X24452Y12322D01*
X24543Y12310D01*
X24533Y12158D01*
X22127D01*
X22069Y12299D01*
X22610Y12840D01*
X22682Y12948D01*
X22708Y13075D01*
Y14490D01*
X22780Y14545D01*
X22871Y14664D01*
X22928Y14802D01*
X22947Y14950D01*
X22928Y15098D01*
X22871Y15236D01*
X22780Y15355D01*
X22708Y15410D01*
Y16025D01*
X22682Y16152D01*
X22610Y16260D01*
X22610Y16260D01*
X22370Y16500D01*
Y16703D01*
X22485Y16818D01*
X22557Y16926D01*
X22583Y17053D01*
Y17275D01*
X22661D01*
Y18024D01*
X22839D01*
Y17275D01*
D02*
G37*
G36*
X18950Y8980D02*
Y8200D01*
Y7200D01*
X19092D01*
Y7044D01*
X17856Y5808D01*
X17650D01*
Y6950D01*
X17433D01*
Y7662D01*
X18809Y9039D01*
X18950Y8980D01*
D02*
G37*
G36*
X56525Y6800D02*
X55350D01*
X54650Y7500D01*
Y8095D01*
X56525D01*
Y6800D01*
D02*
G37*
G36*
X55650Y5975D02*
X55900Y5725D01*
Y4950D01*
X54925D01*
X54450Y5425D01*
Y6450D01*
X55650D01*
Y5975D01*
D02*
G37*
G36*
X3400Y18020D02*
X3290Y17910D01*
X3218Y17802D01*
X3192Y17675D01*
Y17650D01*
X2975D01*
Y16550D01*
X3988D01*
X4015Y16515D01*
X4565Y15965D01*
X4565Y15965D01*
X4647Y15903D01*
X4595Y15750D01*
X3300D01*
Y13750D01*
X7200D01*
Y13750D01*
X7344Y13728D01*
Y13150D01*
X7369Y12954D01*
X7445Y12772D01*
X7565Y12615D01*
X7963Y12217D01*
X7273Y11527D01*
X7195Y11412D01*
X7168Y11275D01*
Y9250D01*
X3300D01*
Y7250D01*
X7168D01*
Y5575D01*
X7016Y5464D01*
X6950Y5472D01*
X6860Y5461D01*
X5435Y6885D01*
X5327Y6957D01*
X5200Y6983D01*
X2473D01*
X2258Y7198D01*
Y17450D01*
X2475D01*
Y18502D01*
X2552Y18518D01*
X2660Y18590D01*
X2920Y18850D01*
X3400D01*
Y18020D01*
D02*
G37*
G36*
X20592Y10623D02*
Y9783D01*
X20200D01*
X20073Y9757D01*
X19965Y9685D01*
X19580Y9300D01*
X19270D01*
X19211Y9441D01*
X20451Y10681D01*
X20592Y10623D01*
D02*
G37*
G36*
X26325Y17880D02*
Y17025D01*
X26265Y16985D01*
X26265Y16985D01*
X25815Y16535D01*
X25743Y16427D01*
X25717Y16300D01*
Y12850D01*
X25743Y12723D01*
X25815Y12615D01*
X26325Y12105D01*
Y11208D01*
X25938D01*
X25085Y12060D01*
X24977Y12132D01*
X24850Y12158D01*
X24667D01*
X24657Y12310D01*
X24748Y12322D01*
X24886Y12379D01*
X25005Y12470D01*
X25096Y12589D01*
X25153Y12727D01*
X25172Y12875D01*
X25153Y13023D01*
X25096Y13161D01*
X25008Y13276D01*
Y15424D01*
X25096Y15539D01*
X25153Y15677D01*
X25172Y15825D01*
X25153Y15973D01*
X25143Y15998D01*
X25150Y16150D01*
X25150Y16150D01*
X25150Y16150D01*
Y17250D01*
X23803D01*
X23661Y17275D01*
Y17589D01*
X24475D01*
Y17592D01*
X25700D01*
X25827Y17618D01*
X25935Y17690D01*
X26184Y17939D01*
X26325Y17880D01*
D02*
G37*
G36*
X64744Y11772D02*
X64592Y11670D01*
X64573Y11678D01*
X64425Y11697D01*
X64277Y11678D01*
X64139Y11621D01*
X64020Y11530D01*
X63929Y11411D01*
X63872Y11273D01*
X63853Y11125D01*
X63862Y11052D01*
X63754Y10900D01*
X62750D01*
Y10683D01*
X62363D01*
X61733Y11313D01*
Y11700D01*
X63200D01*
Y13100D01*
X63108D01*
Y15800D01*
X63200D01*
Y17075D01*
X64744D01*
Y11772D01*
D02*
G37*
G36*
X17868Y11273D02*
X17847Y11223D01*
X17828Y11075D01*
X17847Y10927D01*
X17904Y10789D01*
X17995Y10670D01*
X18114Y10579D01*
X18252Y10522D01*
X18400Y10503D01*
X18548Y10522D01*
X18686Y10579D01*
X18716Y10602D01*
X18817Y10487D01*
X14937Y6608D01*
X14625D01*
Y7825D01*
X14625Y7825D01*
X14625D01*
X14607Y7977D01*
X14628Y8027D01*
X14647Y8170D01*
X14888Y8412D01*
X14977Y8544D01*
X15008Y8700D01*
X15008Y8700D01*
Y9092D01*
X16040D01*
Y9025D01*
X16860D01*
Y9975D01*
X16040D01*
Y9908D01*
X15008D01*
Y10590D01*
X15725D01*
Y10643D01*
X16040D01*
Y10525D01*
X16860D01*
Y11395D01*
X17000Y11425D01*
Y11425D01*
X17769D01*
X17868Y11273D01*
D02*
G37*
G36*
X58245Y11913D02*
X59255D01*
Y11915D01*
X60240D01*
Y11286D01*
X60139Y11185D01*
X58292D01*
X57963Y11513D01*
X57831Y11602D01*
X57805Y11607D01*
X57675Y11633D01*
X57675Y11633D01*
X57494D01*
X57338Y11789D01*
Y12017D01*
X58245D01*
Y11913D01*
D02*
G37*
G36*
X10770Y20345D02*
Y20175D01*
X10775Y20139D01*
Y19475D01*
X10968D01*
Y19285D01*
X10850D01*
Y18465D01*
X11315D01*
X11374Y18324D01*
X10890Y17840D01*
X10577D01*
Y18255D01*
X10550Y18392D01*
X10472Y18507D01*
X9867Y19113D01*
X9938Y19257D01*
X9975Y19253D01*
X10123Y19272D01*
X10261Y19329D01*
X10380Y19420D01*
X10471Y19539D01*
X10528Y19677D01*
X10547Y19825D01*
X10528Y19973D01*
X10471Y20111D01*
X10404Y20198D01*
X10439Y20307D01*
X10473Y20350D01*
X10500D01*
Y20400D01*
X10653Y20463D01*
X10770Y20345D01*
D02*
G37*
G36*
X3000Y30069D02*
X3000Y30069D01*
X26863D01*
X26950Y29917D01*
X26922Y29848D01*
X26903Y29700D01*
X26922Y29552D01*
X26979Y29414D01*
X27070Y29295D01*
X27189Y29204D01*
X27327Y29147D01*
X27475Y29128D01*
X27623Y29147D01*
X27761Y29204D01*
X27880Y29295D01*
X27971Y29414D01*
X28003Y29492D01*
X57993D01*
X58004Y29464D01*
X58095Y29345D01*
X58214Y29254D01*
X58352Y29197D01*
X58500Y29178D01*
X58648Y29197D01*
X58786Y29254D01*
X58905Y29345D01*
X58996Y29464D01*
X59053Y29602D01*
X59072Y29750D01*
X59053Y29898D01*
X59045Y29917D01*
X59147Y30069D01*
X62000D01*
X62000Y30069D01*
X62000Y30069D01*
X62149Y30061D01*
X62430Y30039D01*
X62849Y29938D01*
X63247Y29773D01*
X63615Y29548D01*
X63943Y29268D01*
X64223Y28940D01*
X64448Y28572D01*
X64613Y28174D01*
X64714Y27755D01*
X64746Y27337D01*
X64744Y27325D01*
X64744Y27325D01*
Y22909D01*
X64700Y22775D01*
X63350D01*
Y23975D01*
X62720D01*
X62670Y24025D01*
X62599Y24072D01*
X62594Y24207D01*
X62604Y24239D01*
X62643Y24256D01*
X62980Y24462D01*
X63281Y24719D01*
X63538Y25020D01*
X63744Y25357D01*
X63895Y25722D01*
X63988Y26106D01*
X64019Y26500D01*
X63988Y26894D01*
X63895Y27278D01*
X63758Y27610D01*
X63889Y27711D01*
X64022Y27883D01*
X64105Y28084D01*
X64133Y28300D01*
X64105Y28516D01*
X64022Y28717D01*
X63889Y28889D01*
X63717Y29022D01*
X63516Y29105D01*
X63300Y29133D01*
X63084Y29105D01*
X62883Y29022D01*
X62711Y28889D01*
X62610Y28758D01*
X62278Y28895D01*
X61894Y28988D01*
X61500Y29019D01*
X61106Y28988D01*
X60722Y28895D01*
X60356Y28744D01*
X60020Y28538D01*
X59719Y28281D01*
X59462Y27980D01*
X59256Y27643D01*
X59105Y27278D01*
X59012Y26894D01*
X58981Y26500D01*
X59012Y26106D01*
X59105Y25722D01*
X59256Y25357D01*
X59416Y25095D01*
X59295Y25000D01*
X58508Y25788D01*
Y28300D01*
X58508Y28300D01*
X58482Y28427D01*
X58410Y28535D01*
X58410Y28535D01*
X57810Y29135D01*
X57702Y29207D01*
X57575Y29233D01*
X53075D01*
X52948Y29207D01*
X52840Y29135D01*
X52390Y28685D01*
X52318Y28577D01*
X52292Y28450D01*
Y28042D01*
X52140Y28012D01*
X52107Y28091D01*
X52005Y28225D01*
X51871Y28327D01*
X51716Y28391D01*
X51550Y28413D01*
X51384Y28391D01*
X51229Y28327D01*
X51095Y28225D01*
X50993Y28091D01*
X50929Y27936D01*
X50907Y27770D01*
X50929Y27604D01*
X50993Y27448D01*
X51095Y27315D01*
X51200Y27235D01*
X51178Y27116D01*
X51160Y27083D01*
X49400D01*
X49382Y27116D01*
X49360Y27235D01*
X49465Y27315D01*
X49567Y27448D01*
X49631Y27604D01*
X49653Y27770D01*
X49631Y27936D01*
X49567Y28091D01*
X49465Y28225D01*
X49332Y28327D01*
X49176Y28391D01*
X49010Y28413D01*
X48844Y28391D01*
X48688Y28327D01*
X48555Y28225D01*
X48453Y28091D01*
X48389Y27936D01*
X48367Y27770D01*
X48389Y27604D01*
X48453Y27448D01*
X48555Y27315D01*
X48660Y27235D01*
X48638Y27116D01*
X48620Y27083D01*
X46860D01*
X46842Y27116D01*
X46820Y27235D01*
X46925Y27315D01*
X47027Y27448D01*
X47091Y27604D01*
X47113Y27770D01*
X47091Y27936D01*
X47027Y28091D01*
X46925Y28225D01*
X46792Y28327D01*
X46636Y28391D01*
X46470Y28413D01*
X46304Y28391D01*
X46148Y28327D01*
X46015Y28225D01*
X45913Y28091D01*
X45849Y27936D01*
X45827Y27770D01*
X45849Y27604D01*
X45913Y27448D01*
X46015Y27315D01*
X46120Y27235D01*
X46098Y27116D01*
X46080Y27083D01*
X45333D01*
Y27440D01*
X45405Y27495D01*
X45496Y27614D01*
X45553Y27752D01*
X45572Y27900D01*
X45553Y28048D01*
X45496Y28186D01*
X45405Y28305D01*
X45286Y28396D01*
X45148Y28453D01*
X45000Y28472D01*
X44852Y28453D01*
X44714Y28396D01*
X44595Y28305D01*
X44555Y28253D01*
X44417Y28230D01*
X44384Y28234D01*
X44362Y28242D01*
X44251Y28327D01*
X44096Y28391D01*
X43930Y28413D01*
X43764Y28391D01*
X43609Y28327D01*
X43475Y28225D01*
X43373Y28091D01*
X43309Y27936D01*
X43287Y27770D01*
X43309Y27604D01*
X43373Y27448D01*
X43475Y27315D01*
X43547Y27260D01*
X43495Y27108D01*
X43275D01*
X43275Y27108D01*
X43148Y27082D01*
X43040Y27010D01*
X42719Y26690D01*
X42505Y26691D01*
X42410Y26785D01*
X42302Y26857D01*
X42175Y26883D01*
X40781D01*
X40722Y26950D01*
X40703Y27098D01*
X40646Y27236D01*
X40555Y27355D01*
X40448Y27437D01*
X40426Y27469D01*
X40407Y27623D01*
X40457Y27698D01*
X40483Y27825D01*
X40483Y27825D01*
Y27840D01*
X40555Y27895D01*
X40628Y27991D01*
X40769Y27936D01*
X40747Y27770D01*
X40769Y27604D01*
X40833Y27448D01*
X40935Y27315D01*
X41069Y27213D01*
X41224Y27149D01*
X41390Y27127D01*
X41556Y27149D01*
X41711Y27213D01*
X41845Y27315D01*
X41947Y27448D01*
X42011Y27604D01*
X42033Y27770D01*
X42011Y27936D01*
X41947Y28091D01*
X41845Y28225D01*
X41711Y28327D01*
X41556Y28391D01*
X41390Y28413D01*
X41224Y28391D01*
X41069Y28327D01*
X40935Y28225D01*
X40833Y28091D01*
X40703Y28152D01*
X40722Y28300D01*
X40703Y28448D01*
X40646Y28586D01*
X40555Y28705D01*
X40436Y28796D01*
X40298Y28853D01*
X40150Y28872D01*
X40002Y28853D01*
X39864Y28796D01*
X39745Y28705D01*
X39654Y28586D01*
X39597Y28448D01*
X39578Y28300D01*
X39597Y28152D01*
X39654Y28014D01*
X39745Y27895D01*
X39746Y27891D01*
X39644Y27790D01*
X39483Y27844D01*
X39471Y27936D01*
X39407Y28091D01*
X39305Y28225D01*
X39172Y28327D01*
X39016Y28391D01*
X38850Y28413D01*
X38684Y28391D01*
X38528Y28327D01*
X38395Y28225D01*
X38293Y28091D01*
X38229Y27936D01*
X38207Y27770D01*
X38229Y27604D01*
X38293Y27448D01*
X38395Y27315D01*
X38528Y27213D01*
X38684Y27149D01*
X38850Y27127D01*
X39016Y27149D01*
X39090Y27179D01*
X39242Y27085D01*
Y25915D01*
X39090Y25821D01*
X39016Y25851D01*
X38850Y25873D01*
X38684Y25851D01*
X38528Y25787D01*
X38395Y25685D01*
X38293Y25552D01*
X38229Y25396D01*
X38207Y25230D01*
X38229Y25064D01*
X38293Y24909D01*
X38395Y24775D01*
X38528Y24673D01*
X38684Y24609D01*
X38850Y24587D01*
X38979Y24604D01*
X39076Y24556D01*
X39143Y24496D01*
X39151Y24422D01*
X37365Y22635D01*
X37293Y22527D01*
X37267Y22400D01*
Y22013D01*
X33849Y18594D01*
X33708Y18652D01*
Y20087D01*
X34735Y21115D01*
X34807Y21223D01*
X34833Y21350D01*
Y22070D01*
X34807Y22197D01*
X34735Y22305D01*
X34735Y22305D01*
X33058Y23983D01*
Y24885D01*
X33210Y24916D01*
X33213Y24909D01*
X33315Y24775D01*
X33449Y24673D01*
X33604Y24609D01*
X33770Y24587D01*
X33936Y24609D01*
X34091Y24673D01*
X34225Y24775D01*
X34327Y24909D01*
X34391Y25064D01*
X34413Y25230D01*
X34391Y25396D01*
X34327Y25552D01*
X34225Y25685D01*
X34091Y25787D01*
X33936Y25851D01*
X33770Y25873D01*
X33604Y25851D01*
X33449Y25787D01*
X33315Y25685D01*
X33213Y25552D01*
X33210Y25544D01*
X33058Y25575D01*
Y26087D01*
X33388Y26417D01*
X34250D01*
X34377Y26443D01*
X34485Y26515D01*
X35210Y27239D01*
X35300Y27228D01*
X35448Y27247D01*
X35586Y27304D01*
X35705Y27395D01*
X35845Y27328D01*
X35855Y27315D01*
X35988Y27213D01*
X36144Y27149D01*
X36310Y27127D01*
X36476Y27149D01*
X36632Y27213D01*
X36765Y27315D01*
X36867Y27448D01*
X36931Y27604D01*
X36953Y27770D01*
X36931Y27936D01*
X36867Y28091D01*
X36765Y28225D01*
X36632Y28327D01*
X36476Y28391D01*
X36310Y28413D01*
X36144Y28391D01*
X35988Y28327D01*
X35872Y28237D01*
X35778Y28205D01*
X35705D01*
X35586Y28296D01*
X35448Y28353D01*
X35300Y28372D01*
X35152Y28353D01*
X35014Y28296D01*
X34895Y28205D01*
X34804Y28086D01*
X34747Y27948D01*
X34728Y27800D01*
X34739Y27710D01*
X34502Y27472D01*
X34372Y27559D01*
X34391Y27604D01*
X34413Y27770D01*
X34391Y27936D01*
X34327Y28091D01*
X34225Y28225D01*
X34091Y28327D01*
X33936Y28391D01*
X33770Y28413D01*
X33604Y28391D01*
X33449Y28327D01*
X33315Y28225D01*
X33213Y28091D01*
X33149Y27936D01*
X33127Y27770D01*
X33149Y27604D01*
X33213Y27448D01*
X33315Y27315D01*
X33420Y27235D01*
X33398Y27116D01*
X33380Y27083D01*
X33250D01*
X33123Y27057D01*
X33015Y26985D01*
X32490Y26460D01*
X32486Y26460D01*
X31910Y27035D01*
X31802Y27107D01*
X31693Y27129D01*
X31666Y27178D01*
X31645Y27285D01*
X31685Y27315D01*
X31787Y27448D01*
X31851Y27604D01*
X31873Y27770D01*
X31851Y27936D01*
X31787Y28091D01*
X31685Y28225D01*
X31552Y28327D01*
X31396Y28391D01*
X31230Y28413D01*
X31064Y28391D01*
X30909Y28327D01*
X30775Y28225D01*
X30731Y28166D01*
X30638Y28103D01*
X30528Y28139D01*
X30486Y28171D01*
X30348Y28228D01*
X30200Y28247D01*
X30052Y28228D01*
X29914Y28171D01*
X29795Y28080D01*
X29704Y27961D01*
X29647Y27823D01*
X29628Y27675D01*
X29647Y27527D01*
X29704Y27389D01*
X29795Y27270D01*
X29914Y27179D01*
X30052Y27122D01*
X30200Y27103D01*
X30290Y27114D01*
X30840Y26565D01*
X30840Y26565D01*
X30948Y26493D01*
X31075Y26467D01*
X31075Y26467D01*
X31537D01*
X31992Y26012D01*
Y25434D01*
X31851Y25396D01*
X31787Y25552D01*
X31685Y25685D01*
X31552Y25787D01*
X31396Y25851D01*
X31230Y25873D01*
X31064Y25851D01*
X30909Y25787D01*
X30775Y25685D01*
X30673Y25552D01*
X30609Y25396D01*
X30587Y25230D01*
X30609Y25064D01*
X30673Y24909D01*
X30775Y24775D01*
X30909Y24673D01*
X31064Y24609D01*
X31230Y24587D01*
X31396Y24609D01*
X31552Y24673D01*
X31685Y24775D01*
X31787Y24909D01*
X31851Y25064D01*
X31992Y25026D01*
Y23600D01*
X32018Y23473D01*
X32090Y23365D01*
X32355Y23100D01*
X32313Y22945D01*
X32290Y22932D01*
X32175Y22947D01*
X32027Y22928D01*
X31889Y22871D01*
X31770Y22780D01*
X31715Y22708D01*
X31475D01*
X31348Y22682D01*
X31240Y22610D01*
X30640Y22010D01*
X30568Y21902D01*
X30542Y21775D01*
Y20638D01*
X29978Y20073D01*
X29825Y20095D01*
Y20575D01*
X26325D01*
Y19213D01*
X25783D01*
X25685Y19310D01*
X25577Y19382D01*
X25450Y19408D01*
X24475D01*
Y19411D01*
X23726D01*
Y19589D01*
X24475D01*
Y20005D01*
X24585Y20115D01*
X24733Y20100D01*
X24745Y20072D01*
X24865Y19915D01*
X25022Y19795D01*
X25204Y19719D01*
X25400Y19694D01*
X25596Y19719D01*
X25778Y19795D01*
X25935Y19915D01*
X26055Y20072D01*
X26131Y20254D01*
X26156Y20450D01*
X26131Y20646D01*
X26055Y20828D01*
X25935Y20985D01*
X25778Y21105D01*
X25596Y21181D01*
X25400Y21206D01*
X25204Y21181D01*
X25022Y21105D01*
X24865Y20985D01*
X24745Y20828D01*
X24726Y20783D01*
X24450D01*
X24450Y20783D01*
X24323Y20757D01*
X24215Y20685D01*
X24215Y20685D01*
X23941Y20411D01*
X23661D01*
Y20725D01*
X23763Y20770D01*
Y21780D01*
X23763Y21780D01*
X23781Y21925D01*
X23803Y21977D01*
X23822Y22125D01*
X23803Y22273D01*
X23746Y22411D01*
X23658Y22526D01*
Y23220D01*
X27105D01*
X27122Y23207D01*
X27280Y23142D01*
X27450Y23119D01*
X27620Y23142D01*
X27778Y23207D01*
X27914Y23311D01*
X28018Y23447D01*
X28083Y23605D01*
X28106Y23775D01*
X28083Y23945D01*
X28018Y24103D01*
X27914Y24239D01*
X27858Y24281D01*
Y27339D01*
X27946Y27454D01*
X27956Y27478D01*
X28121D01*
X28133Y27448D01*
X28235Y27315D01*
X28368Y27213D01*
X28524Y27149D01*
X28690Y27127D01*
X28856Y27149D01*
X29011Y27213D01*
X29145Y27315D01*
X29247Y27448D01*
X29311Y27604D01*
X29333Y27770D01*
X29311Y27936D01*
X29247Y28091D01*
X29145Y28225D01*
X29011Y28327D01*
X28856Y28391D01*
X28690Y28413D01*
X28524Y28391D01*
X28368Y28327D01*
X28235Y28225D01*
X28133Y28091D01*
X28108Y28032D01*
X27946Y28026D01*
X27855Y28145D01*
X27736Y28236D01*
X27598Y28293D01*
X27450Y28312D01*
X27302Y28293D01*
X27164Y28236D01*
X27045Y28145D01*
X26954Y28026D01*
X26923Y27951D01*
X26834Y27942D01*
X26762Y27959D01*
X26707Y28091D01*
X26605Y28225D01*
X26472Y28327D01*
X26316Y28391D01*
X26150Y28413D01*
X25984Y28391D01*
X25829Y28327D01*
X25695Y28225D01*
X25593Y28091D01*
X25529Y27936D01*
X25507Y27770D01*
X25529Y27604D01*
X25593Y27448D01*
X25695Y27315D01*
X25829Y27213D01*
X25984Y27149D01*
X26150Y27127D01*
X26316Y27149D01*
X26472Y27213D01*
X26605Y27315D01*
X26707Y27448D01*
X26753Y27560D01*
X26780Y27566D01*
X26912Y27556D01*
X26954Y27454D01*
X27042Y27339D01*
Y24330D01*
X23490D01*
X23328Y24492D01*
X23414Y24621D01*
X23444Y24609D01*
X23610Y24587D01*
X23776Y24609D01*
X23931Y24673D01*
X24065Y24775D01*
X24167Y24909D01*
X24231Y25064D01*
X24253Y25230D01*
X24231Y25396D01*
X24167Y25552D01*
X24065Y25685D01*
X23931Y25787D01*
X23776Y25851D01*
X23610Y25873D01*
X23444Y25851D01*
X23288Y25787D01*
X23155Y25685D01*
X23053Y25552D01*
X22989Y25396D01*
X22967Y25230D01*
X22989Y25064D01*
X23053Y24909D01*
X23113Y24831D01*
X23017Y24705D01*
X23004Y24711D01*
X22860Y24730D01*
X21682D01*
X21607Y24882D01*
X21627Y24909D01*
X21691Y25064D01*
X21713Y25230D01*
X21691Y25396D01*
X21627Y25552D01*
X21525Y25685D01*
X21392Y25787D01*
X21236Y25851D01*
X21070Y25873D01*
X20904Y25851D01*
X20749Y25787D01*
X20615Y25685D01*
X20513Y25552D01*
X20449Y25396D01*
X20427Y25230D01*
X20449Y25064D01*
X20513Y24909D01*
X20533Y24882D01*
X20458Y24730D01*
X19142D01*
X19067Y24882D01*
X19087Y24909D01*
X19151Y25064D01*
X19173Y25230D01*
X19151Y25396D01*
X19087Y25552D01*
X18985Y25685D01*
X18851Y25787D01*
X18696Y25851D01*
X18530Y25873D01*
X18364Y25851D01*
X18208Y25787D01*
X18075Y25685D01*
X17973Y25552D01*
X17909Y25396D01*
X17887Y25230D01*
X17909Y25064D01*
X17973Y24909D01*
X17993Y24882D01*
X17918Y24730D01*
X16602D01*
X16527Y24882D01*
X16547Y24909D01*
X16611Y25064D01*
X16633Y25230D01*
X16611Y25396D01*
X16547Y25552D01*
X16445Y25685D01*
X16312Y25787D01*
X16156Y25851D01*
X15990Y25873D01*
X15824Y25851D01*
X15668Y25787D01*
X15535Y25685D01*
X15433Y25552D01*
X15369Y25396D01*
X15347Y25230D01*
X15369Y25064D01*
X15433Y24909D01*
X15453Y24882D01*
X15378Y24730D01*
X14062D01*
X13987Y24882D01*
X14007Y24909D01*
X14071Y25064D01*
X14093Y25230D01*
X14071Y25396D01*
X14007Y25552D01*
X13905Y25685D01*
X13771Y25787D01*
X13616Y25851D01*
X13450Y25873D01*
X13284Y25851D01*
X13128Y25787D01*
X12995Y25685D01*
X12893Y25552D01*
X12829Y25396D01*
X12807Y25230D01*
X12829Y25064D01*
X12893Y24909D01*
X12913Y24882D01*
X12838Y24730D01*
X11522D01*
X11447Y24882D01*
X11467Y24909D01*
X11531Y25064D01*
X11553Y25230D01*
X11531Y25396D01*
X11467Y25552D01*
X11365Y25685D01*
X11231Y25787D01*
X11076Y25851D01*
X10910Y25873D01*
X10744Y25851D01*
X10734Y25847D01*
X10542Y25931D01*
X10534Y25953D01*
X10551Y25974D01*
X10656Y26228D01*
X10691Y26500D01*
X10656Y26772D01*
X10551Y27026D01*
X10534Y27047D01*
X10542Y27069D01*
X10734Y27153D01*
X10744Y27149D01*
X10910Y27127D01*
X11076Y27149D01*
X11231Y27213D01*
X11365Y27315D01*
X11467Y27448D01*
X11531Y27604D01*
X11553Y27770D01*
X11531Y27936D01*
X11467Y28091D01*
X11365Y28225D01*
X11231Y28327D01*
X11147Y28362D01*
X11177Y28514D01*
X12185D01*
X12355Y28537D01*
X12513Y28602D01*
X12649Y28706D01*
X12753Y28842D01*
X12818Y29000D01*
X12841Y29170D01*
X12840Y29173D01*
X12841Y29175D01*
X12818Y29345D01*
X12753Y29503D01*
X12649Y29639D01*
X12513Y29743D01*
X12355Y29808D01*
X12185Y29831D01*
X12147Y29826D01*
X9673D01*
X9635Y29831D01*
X9597Y29826D01*
X7133D01*
X7095Y29831D01*
X6925Y29808D01*
X6767Y29743D01*
X6631Y29639D01*
X6629Y29636D01*
X6626Y29634D01*
X6470Y29477D01*
X6288Y29402D01*
X6132Y29281D01*
X6011Y29125D01*
X5936Y28942D01*
X5910Y28746D01*
Y27642D01*
X5758Y27611D01*
X5744Y27643D01*
X5538Y27980D01*
X5281Y28281D01*
X4980Y28538D01*
X4643Y28744D01*
X4278Y28895D01*
X3894Y28988D01*
X3500Y29019D01*
X3106Y28988D01*
X2722Y28895D01*
X2390Y28758D01*
X2289Y28889D01*
X2117Y29022D01*
X1916Y29105D01*
X1700Y29133D01*
X1484Y29105D01*
X1283Y29022D01*
X1111Y28889D01*
X978Y28717D01*
X895Y28516D01*
X867Y28300D01*
X895Y28084D01*
X978Y27883D01*
X1111Y27711D01*
X1242Y27610D01*
X1105Y27278D01*
X1012Y26894D01*
X981Y26500D01*
X1012Y26106D01*
X1105Y25722D01*
X1256Y25357D01*
X1462Y25020D01*
X1719Y24719D01*
X2020Y24462D01*
X2356Y24256D01*
X2722Y24105D01*
X2832Y24078D01*
X2868Y23913D01*
X1840Y22885D01*
X1720Y22728D01*
X1644Y22546D01*
X1619Y22350D01*
Y22014D01*
X1602Y22010D01*
X1520Y21955D01*
X1465Y21873D01*
X1455Y21825D01*
X1425D01*
Y20825D01*
Y19975D01*
Y19330D01*
X1342D01*
Y18320D01*
X1375D01*
Y17450D01*
X1592D01*
Y7060D01*
X1618Y6933D01*
X1690Y6825D01*
X2100Y6415D01*
X2100Y6415D01*
X2208Y6343D01*
X2335Y6317D01*
X2335Y6317D01*
X5062D01*
X6389Y4990D01*
X6378Y4900D01*
X6397Y4752D01*
X6454Y4614D01*
X6545Y4495D01*
X6664Y4404D01*
X6802Y4347D01*
X6950Y4328D01*
X7016Y4336D01*
X7168Y4225D01*
Y1525D01*
X7195Y1388D01*
X7273Y1273D01*
X7623Y923D01*
X7738Y845D01*
X7875Y818D01*
X8050D01*
Y625D01*
X9150D01*
Y719D01*
X9300Y725D01*
Y725D01*
X10300D01*
Y1625D01*
X10300D01*
Y1725D01*
X10300D01*
Y2625D01*
X9300D01*
Y2625D01*
X9150Y2631D01*
Y2725D01*
X8957D01*
Y3625D01*
X9050D01*
Y4625D01*
X8150D01*
Y3625D01*
X8243D01*
Y2725D01*
X8050D01*
Y1887D01*
X7898Y1805D01*
X7882Y1816D01*
Y11127D01*
X8533Y11778D01*
X8554Y11769D01*
X8750Y11744D01*
X11000D01*
X11049Y11750D01*
X13000D01*
Y11990D01*
X13250D01*
Y11950D01*
X13393D01*
Y11410D01*
X13275D01*
Y10590D01*
X14192D01*
Y9705D01*
X14138Y9667D01*
X14040Y9638D01*
X13949Y9708D01*
X13811Y9765D01*
X13663Y9785D01*
X13514Y9765D01*
X13376Y9708D01*
X13258Y9617D01*
X13167Y9499D01*
X13110Y9361D01*
X13090Y9212D01*
X13102Y9122D01*
X10255Y6275D01*
X9625D01*
Y6058D01*
X9400D01*
X9273Y6032D01*
X9165Y5960D01*
X9130Y5925D01*
X8650D01*
Y4925D01*
X9550D01*
Y5054D01*
X9625Y5175D01*
X10725D01*
Y5805D01*
X13437Y8517D01*
X13567Y8430D01*
X13522Y8323D01*
X13503Y8175D01*
X13522Y8027D01*
X13543Y7977D01*
X13525Y7825D01*
X13525D01*
X13525Y7825D01*
Y6725D01*
Y5725D01*
X13660Y5725D01*
Y4950D01*
X12910D01*
Y4908D01*
X12114D01*
X12105Y4928D01*
X11985Y5085D01*
X11828Y5205D01*
X11646Y5281D01*
X11450Y5306D01*
X11254Y5281D01*
X11072Y5205D01*
X10915Y5085D01*
X10795Y4928D01*
X10719Y4746D01*
X10694Y4550D01*
X10719Y4354D01*
X10795Y4172D01*
X10915Y4015D01*
X11072Y3895D01*
X11254Y3819D01*
X11450Y3794D01*
X11646Y3819D01*
X11828Y3895D01*
X11985Y4015D01*
X12105Y4172D01*
X12134Y4242D01*
X12910D01*
Y4150D01*
X13492D01*
X13566Y3997D01*
X13529Y3950D01*
X12910D01*
Y3799D01*
X12815Y3735D01*
X12712Y3633D01*
X12575D01*
X12575Y3633D01*
X12448Y3607D01*
X12362Y3550D01*
X11877D01*
X11725Y3550D01*
Y3550D01*
X11725D01*
Y3550D01*
X10625D01*
Y2450D01*
X11725D01*
X11725Y2297D01*
Y2191D01*
X11600Y2125D01*
X10600D01*
Y1225D01*
X11600D01*
Y1318D01*
X11950D01*
X12087Y1345D01*
X12202Y1423D01*
X12230Y1450D01*
X12825D01*
Y1787D01*
X12950Y1838D01*
X12977Y1842D01*
X13090Y1756D01*
X13228Y1698D01*
X13376Y1679D01*
X13524Y1698D01*
X13663Y1756D01*
X13781Y1847D01*
X13872Y1965D01*
X13929Y2103D01*
X13949Y2251D01*
X13937Y2341D01*
X14235Y2639D01*
X14387Y2576D01*
Y1947D01*
X14347Y1930D01*
X14190Y1810D01*
X14070Y1653D01*
X13994Y1471D01*
X13969Y1275D01*
X13994Y1079D01*
X14070Y897D01*
X14190Y740D01*
X14347Y620D01*
X14529Y544D01*
X14725Y519D01*
X14921Y544D01*
X15103Y620D01*
X15260Y740D01*
X15380Y897D01*
X15456Y1079D01*
X15481Y1275D01*
X15456Y1471D01*
X15444Y1500D01*
X15554Y1619D01*
X15750Y1594D01*
X15946Y1619D01*
X16128Y1695D01*
X16285Y1815D01*
X16405Y1972D01*
X16481Y2154D01*
X16506Y2350D01*
X16481Y2546D01*
X16405Y2728D01*
X16285Y2885D01*
X16128Y3005D01*
X16083Y3024D01*
Y3600D01*
X16057Y3727D01*
X15985Y3835D01*
X15916Y3904D01*
X15975Y4045D01*
X16688D01*
Y4850D01*
X17650D01*
Y4992D01*
X18025D01*
X18025Y4992D01*
X18181Y5023D01*
X18313Y5112D01*
X19669Y6467D01*
X19950D01*
Y6325D01*
X21002D01*
X21050Y6325D01*
X21160Y6222D01*
X21204Y6114D01*
X21295Y5995D01*
X21414Y5904D01*
X21552Y5847D01*
X21681Y5830D01*
X21701Y5807D01*
X21714Y5786D01*
X21750Y5680D01*
X21551Y5439D01*
X21381Y5119D01*
X21276Y4773D01*
X21240Y4412D01*
X21244D01*
Y1846D01*
X21092Y1816D01*
X21014Y2004D01*
X20853Y2213D01*
X20644Y2373D01*
X20401Y2474D01*
X20140Y2509D01*
X19879Y2474D01*
X19636Y2373D01*
X19427Y2213D01*
X19267Y2004D01*
X19166Y1761D01*
X19131Y1500D01*
X19166Y1239D01*
X19267Y996D01*
X19427Y787D01*
X19636Y627D01*
X19879Y526D01*
X20140Y491D01*
X20401Y526D01*
X20644Y627D01*
X20853Y787D01*
X21014Y996D01*
X21092Y1184D01*
X21244Y1154D01*
Y256D01*
X3152D01*
X3150Y256D01*
X3000Y256D01*
X2851Y264D01*
X2570Y286D01*
X2151Y387D01*
X1753Y552D01*
X1385Y777D01*
X1057Y1057D01*
X777Y1385D01*
X552Y1753D01*
X387Y2151D01*
X286Y2570D01*
X253Y2988D01*
X256Y3000D01*
X256Y3000D01*
Y27325D01*
X256Y27325D01*
X253Y27337D01*
X286Y27755D01*
X387Y28174D01*
X552Y28572D01*
X777Y28940D01*
X1057Y29268D01*
X1385Y29548D01*
X1753Y29773D01*
X2151Y29938D01*
X2570Y30039D01*
X2988Y30072D01*
X3000Y30069D01*
D02*
G37*
G36*
X21647Y22865D02*
X21640Y22860D01*
X21521Y22705D01*
X21520Y22703D01*
X21335Y22656D01*
X21303Y22680D01*
X21121Y22756D01*
X20925Y22781D01*
X20729Y22756D01*
X20547Y22680D01*
X20390Y22560D01*
X20270Y22403D01*
X20194Y22221D01*
X20169Y22025D01*
X20194Y21829D01*
X20270Y21647D01*
X20390Y21490D01*
X20547Y21370D01*
X20729Y21294D01*
X20925Y21269D01*
X21121Y21294D01*
X21166Y21313D01*
X21839Y20641D01*
Y20411D01*
X21025D01*
X21005Y20512D01*
X19995D01*
Y19513D01*
X19946Y19476D01*
X19836Y19449D01*
X19783Y19495D01*
Y20000D01*
X19757Y20127D01*
X19685Y20235D01*
X19685Y20235D01*
X19358Y20563D01*
Y21115D01*
X19430Y21170D01*
X19521Y21289D01*
X19578Y21427D01*
X19597Y21575D01*
X19578Y21723D01*
X19521Y21861D01*
X19430Y21980D01*
X19311Y22071D01*
X19173Y22128D01*
X19025Y22147D01*
X18877Y22128D01*
X18739Y22071D01*
X18620Y21980D01*
X18529Y21861D01*
X18472Y21723D01*
X18453Y21575D01*
X18472Y21427D01*
X18529Y21289D01*
X18620Y21170D01*
X18692Y21115D01*
Y20937D01*
X17695D01*
Y20882D01*
X17549Y20778D01*
X17542Y20779D01*
X17400Y20797D01*
X17323Y20787D01*
X17252Y20932D01*
X17285Y20965D01*
X17357Y21073D01*
X17383Y21200D01*
Y21690D01*
X17455Y21745D01*
X17546Y21864D01*
X17603Y22002D01*
X17622Y22150D01*
X17603Y22298D01*
X17546Y22436D01*
X17455Y22555D01*
X17336Y22646D01*
X17198Y22703D01*
X17050Y22722D01*
X16902Y22703D01*
X16764Y22646D01*
X16645Y22555D01*
X16554Y22436D01*
X16497Y22298D01*
X16478Y22150D01*
X16497Y22002D01*
X16554Y21864D01*
X16645Y21745D01*
X16717Y21690D01*
Y21338D01*
X16515Y21135D01*
X16443Y21027D01*
X16417Y20900D01*
Y19920D01*
X16275D01*
Y18783D01*
X15885D01*
Y19575D01*
X15808D01*
Y22420D01*
X16405Y23017D01*
X21595D01*
X21647Y22865D01*
D02*
G37*
G36*
X40315Y26315D02*
X40315Y26315D01*
X40423Y26243D01*
X40550Y26217D01*
X42037D01*
X42042Y26212D01*
Y25678D01*
X41890Y25626D01*
X41845Y25685D01*
X41711Y25787D01*
X41556Y25851D01*
X41390Y25873D01*
X41224Y25851D01*
X41069Y25787D01*
X40935Y25685D01*
X40833Y25552D01*
X40769Y25396D01*
X40747Y25230D01*
X40769Y25064D01*
X40833Y24909D01*
X40935Y24775D01*
X41069Y24673D01*
X41224Y24609D01*
X41390Y24587D01*
X41556Y24609D01*
X41711Y24673D01*
X41845Y24775D01*
X41890Y24834D01*
X42042Y24782D01*
Y24163D01*
X41787Y23908D01*
X41250D01*
X41250Y23908D01*
X41123Y23882D01*
X41015Y23810D01*
X39340Y22135D01*
X39268Y22027D01*
X39242Y21900D01*
Y17939D01*
X39090Y17876D01*
X39055Y17910D01*
X38947Y17982D01*
X38820Y18008D01*
X37185D01*
X37130Y18080D01*
X37011Y18171D01*
X36873Y18228D01*
X36725Y18247D01*
X36577Y18228D01*
X36439Y18171D01*
X36320Y18080D01*
X36229Y17961D01*
X36172Y17823D01*
X36153Y17675D01*
X36172Y17527D01*
X36229Y17389D01*
X36320Y17270D01*
X36439Y17179D01*
X36577Y17122D01*
X36725Y17103D01*
X36873Y17122D01*
X37011Y17179D01*
X37130Y17270D01*
X37185Y17342D01*
X38682D01*
X39560Y16465D01*
X39668Y16393D01*
X39795Y16367D01*
X41325D01*
Y14875D01*
X44825D01*
Y14915D01*
X45075D01*
Y14875D01*
X45919D01*
Y10650D01*
X45942Y10480D01*
X46007Y10322D01*
X46111Y10186D01*
X46711Y9586D01*
X46847Y9482D01*
X47005Y9417D01*
X47175Y9394D01*
X51000D01*
X51170Y9417D01*
X51328Y9482D01*
X51464Y9586D01*
X52142Y10265D01*
X53004D01*
X53199Y10304D01*
X53364Y10415D01*
X54260Y11311D01*
X54288Y11352D01*
X54387Y11360D01*
X54520Y11235D01*
Y10430D01*
X54412D01*
Y9450D01*
X54405D01*
Y8145D01*
X54395Y8095D01*
Y7500D01*
X54415Y7402D01*
X54470Y7320D01*
X54880Y6910D01*
Y6705D01*
X54450D01*
X54352Y6685D01*
X54270Y6630D01*
X54270Y6630D01*
X53938D01*
Y5620D01*
X54195D01*
Y5425D01*
X54215Y5327D01*
X54270Y5245D01*
X54650Y4865D01*
Y3826D01*
X54500D01*
X54499Y3826D01*
X54499Y3825D01*
Y2025D01*
X54499Y2024D01*
X54500Y2024D01*
X56300D01*
X56301Y2024D01*
X56301Y2025D01*
Y3825D01*
X56301Y3826D01*
X56300Y3826D01*
X56150D01*
Y4925D01*
X56155Y4950D01*
Y5725D01*
X56135Y5823D01*
X56080Y5905D01*
X55920Y6065D01*
Y6545D01*
X56787D01*
Y7555D01*
X56780D01*
Y8095D01*
X56760Y8193D01*
X56705Y8275D01*
X56623Y8330D01*
X56530Y8349D01*
Y8608D01*
X56530D01*
Y9487D01*
X56525D01*
Y10445D01*
X56480D01*
Y11295D01*
X56678D01*
X57037Y10937D01*
X57169Y10848D01*
X57325Y10817D01*
X57325Y10817D01*
X57506D01*
X57732Y10591D01*
X57754Y10480D01*
X57865Y10315D01*
X58030Y10204D01*
X58225Y10165D01*
X60350D01*
X60545Y10204D01*
X60710Y10315D01*
X61110Y10715D01*
X61136Y10753D01*
X61332Y10772D01*
X61990Y10115D01*
X62098Y10043D01*
X62225Y10017D01*
X62225Y10017D01*
X62750D01*
Y9800D01*
X63167D01*
Y9725D01*
X63193Y9598D01*
X63265Y9490D01*
X63300Y9455D01*
Y8750D01*
X64700D01*
X64744Y8616D01*
Y8584D01*
X64700Y8450D01*
X63300D01*
Y7827D01*
X63012Y7538D01*
X62923Y7406D01*
X62922Y7400D01*
X62750D01*
Y6300D01*
X63643D01*
X63740Y6148D01*
X63728Y6050D01*
X63747Y5902D01*
X63804Y5764D01*
X63895Y5645D01*
X64014Y5554D01*
X64152Y5497D01*
X64300Y5478D01*
X64448Y5497D01*
X64586Y5554D01*
X64592Y5558D01*
X64744Y5483D01*
Y3000D01*
X64744Y3000D01*
X64746Y2988D01*
X64714Y2570D01*
X64613Y2151D01*
X64448Y1753D01*
X64223Y1385D01*
X63943Y1057D01*
X63615Y777D01*
X63247Y552D01*
X62849Y387D01*
X62430Y286D01*
X62150Y264D01*
X62000Y256D01*
X62000Y256D01*
X61850Y256D01*
X38756D01*
Y4412D01*
X38760D01*
X38724Y4773D01*
X38619Y5119D01*
X38449Y5439D01*
X38219Y5719D01*
X37939Y5949D01*
X37619Y6119D01*
X37273Y6224D01*
X36912Y6260D01*
Y6256D01*
X23087D01*
Y6260D01*
X22727Y6224D01*
X22381Y6119D01*
X22358Y6107D01*
X22238Y6216D01*
X22253Y6252D01*
X22272Y6400D01*
X22253Y6548D01*
X22196Y6686D01*
X22153Y6742D01*
X22212Y6895D01*
X22212D01*
Y7850D01*
X22275D01*
Y7950D01*
X24100D01*
Y10050D01*
X23862D01*
X23832Y10202D01*
X23836Y10204D01*
X23955Y10295D01*
X24046Y10414D01*
X24103Y10552D01*
X24122Y10700D01*
X24103Y10848D01*
X24046Y10986D01*
X24024Y11015D01*
X24099Y11167D01*
X24537D01*
X25370Y10335D01*
X25478Y10263D01*
X25605Y10237D01*
X26325D01*
Y8875D01*
X29825D01*
Y10237D01*
X30270D01*
X30397Y10263D01*
X30505Y10335D01*
X30810Y10640D01*
X30810Y10640D01*
X30882Y10748D01*
X30908Y10875D01*
Y13262D01*
X31535Y13890D01*
X31607Y13998D01*
X31633Y14125D01*
Y14912D01*
X38405Y21685D01*
X38498Y21697D01*
X38636Y21754D01*
X38755Y21845D01*
X38846Y21964D01*
X38903Y22102D01*
X38922Y22250D01*
X38903Y22398D01*
X38846Y22536D01*
X38755Y22655D01*
X38636Y22746D01*
X38633Y22747D01*
X38597Y22927D01*
X39810Y24140D01*
X39810Y24140D01*
X39882Y24248D01*
X39908Y24375D01*
Y26289D01*
X40060Y26389D01*
X40150Y26378D01*
X40240Y26389D01*
X40315Y26315D01*
D02*
G37*
G36*
X51491Y26019D02*
X51429Y25857D01*
X51384Y25851D01*
X51229Y25787D01*
X51095Y25685D01*
X50993Y25552D01*
X50929Y25396D01*
X50907Y25230D01*
X50929Y25064D01*
X50993Y24909D01*
X51095Y24775D01*
X51229Y24673D01*
X51384Y24609D01*
X51550Y24587D01*
X51716Y24609D01*
X51871Y24673D01*
X51956Y24738D01*
X51993Y24737D01*
X52099Y24696D01*
X52120Y24679D01*
X52134Y24606D01*
X52206Y24499D01*
X52515Y24190D01*
X52623Y24118D01*
X52750Y24092D01*
X58662D01*
X58864Y23891D01*
X58805Y23750D01*
X58790D01*
Y23608D01*
X58650D01*
X58523Y23582D01*
X58415Y23510D01*
X58415Y23510D01*
X58262Y23358D01*
X57675D01*
Y23575D01*
X56575D01*
Y22633D01*
X50250D01*
X50250Y22633D01*
X50123Y22607D01*
X50086Y22583D01*
X49975Y22597D01*
X49827Y22578D01*
X49785Y22561D01*
X49633Y22663D01*
Y23175D01*
X49607Y23302D01*
X49535Y23410D01*
X48935Y24010D01*
X48827Y24082D01*
X48700Y24108D01*
X48185D01*
X48130Y24180D01*
X48011Y24271D01*
X47873Y24328D01*
X47725Y24347D01*
X47577Y24328D01*
X47439Y24271D01*
X47320Y24180D01*
X47263Y24105D01*
X47148Y24082D01*
X47040Y24010D01*
X46565Y23535D01*
X46493Y23427D01*
X46467Y23300D01*
Y22975D01*
X46250D01*
Y21875D01*
X47350D01*
Y22975D01*
X47133D01*
Y23162D01*
X47332Y23361D01*
X47439Y23279D01*
X47577Y23222D01*
X47725Y23203D01*
X47873Y23222D01*
X48011Y23279D01*
X48130Y23370D01*
X48185Y23442D01*
X48562D01*
X48967Y23037D01*
Y21944D01*
X48853Y21844D01*
X48825Y21847D01*
X48677Y21828D01*
X48539Y21771D01*
X48420Y21680D01*
X48329Y21561D01*
X48272Y21423D01*
X48253Y21275D01*
X48272Y21127D01*
X48329Y20989D01*
X48420Y20870D01*
X48539Y20779D01*
X48677Y20722D01*
X48825Y20703D01*
X48973Y20722D01*
X48997Y20732D01*
X49515Y20215D01*
X49623Y20143D01*
X49750Y20117D01*
X49750Y20117D01*
X51100D01*
X51227Y20143D01*
X51335Y20215D01*
X52063Y20942D01*
X52672D01*
X52731Y20801D01*
X51709Y19780D01*
X47500D01*
Y19800D01*
X46100D01*
Y19650D01*
X45575D01*
X45526Y19640D01*
X45258D01*
Y25537D01*
X45788Y26067D01*
X51450D01*
X51491Y26019D01*
D02*
G37*
G36*
X3400Y20850D02*
Y20650D01*
X2525D01*
Y21075D01*
X1700D01*
Y21775D01*
X3400D01*
Y20850D01*
D02*
G37*
G36*
X8386Y22502D02*
X8543Y22382D01*
X8725Y22306D01*
X8921Y22281D01*
X9137D01*
X9277Y22140D01*
X9434Y22020D01*
X9487Y21998D01*
X9446Y21850D01*
X9100D01*
Y20583D01*
X8800D01*
Y21850D01*
X8277D01*
X7194Y22933D01*
X7058Y23037D01*
X6900Y23103D01*
X6731Y23125D01*
X5769D01*
X5711Y23266D01*
X6513Y24069D01*
X6820D01*
X8386Y22502D01*
D02*
G37*
G36*
X14727Y23478D02*
X14589Y23421D01*
X14470Y23330D01*
X14379Y23211D01*
X14322Y23073D01*
X14303Y22925D01*
X14322Y22777D01*
X14379Y22639D01*
X14470Y22520D01*
X14542Y22465D01*
Y21910D01*
X14470Y21855D01*
X14379Y21736D01*
X14322Y21598D01*
X14303Y21450D01*
X14322Y21302D01*
X14379Y21164D01*
X14470Y21045D01*
X14589Y20954D01*
X14727Y20897D01*
X14875Y20878D01*
X14990Y20893D01*
X15142Y20803D01*
Y19575D01*
X15065D01*
Y19405D01*
X14924Y19346D01*
X14810Y19460D01*
X14702Y19532D01*
X14575Y19558D01*
X14153D01*
X13775Y19935D01*
Y20875D01*
X12675D01*
Y19475D01*
X13212D01*
X13232Y19438D01*
X13141Y19285D01*
X12350D01*
Y19199D01*
X12268Y19182D01*
X12160Y19110D01*
X11941Y18891D01*
X11800Y18950D01*
Y19285D01*
X11682D01*
Y19475D01*
X11875D01*
Y20139D01*
X11880Y20175D01*
Y20575D01*
X11875Y20611D01*
Y20875D01*
X11788D01*
X11717Y20967D01*
X11623Y21062D01*
X11659Y21241D01*
X11730Y21295D01*
X11821Y21414D01*
X11878Y21552D01*
X11897Y21700D01*
X11881Y21825D01*
X11875Y21975D01*
X11875Y21975D01*
Y22639D01*
X11880Y22675D01*
X11875Y22711D01*
Y23375D01*
X10775D01*
X10775Y23375D01*
Y23375D01*
X10623Y23364D01*
X10521Y23406D01*
X10325Y23431D01*
X10239D01*
X10215Y23468D01*
X10297Y23620D01*
X14692D01*
X14727Y23478D01*
D02*
G37*
G36*
X7400Y20873D02*
Y20583D01*
X6700D01*
Y20650D01*
X5400D01*
Y19350D01*
X5550D01*
Y19025D01*
X5200D01*
Y19150D01*
X3700D01*
Y19350D01*
Y20650D01*
X3700D01*
Y20850D01*
X5200D01*
Y20850D01*
X5700D01*
Y20938D01*
X5852Y21013D01*
X5864Y21004D01*
X6002Y20947D01*
X6150Y20928D01*
X6298Y20947D01*
X6436Y21004D01*
X6555Y21095D01*
X6646Y21214D01*
X6703Y21352D01*
X6703Y21354D01*
X6864Y21409D01*
X7400Y20873D01*
D02*
G37*
%LPC*%
G36*
X18530Y28413D02*
X18364Y28391D01*
X18208Y28327D01*
X18075Y28225D01*
X17973Y28091D01*
X17909Y27936D01*
X17887Y27770D01*
X17909Y27604D01*
X17973Y27448D01*
X18075Y27315D01*
X18208Y27213D01*
X18364Y27149D01*
X18530Y27127D01*
X18696Y27149D01*
X18851Y27213D01*
X18985Y27315D01*
X19087Y27448D01*
X19151Y27604D01*
X19173Y27770D01*
X19151Y27936D01*
X19087Y28091D01*
X18985Y28225D01*
X18851Y28327D01*
X18696Y28391D01*
X18530Y28413D01*
D02*
G37*
G36*
X15990D02*
X15824Y28391D01*
X15668Y28327D01*
X15535Y28225D01*
X15433Y28091D01*
X15369Y27936D01*
X15347Y27770D01*
X15369Y27604D01*
X15433Y27448D01*
X15535Y27315D01*
X15668Y27213D01*
X15824Y27149D01*
X15990Y27127D01*
X16156Y27149D01*
X16312Y27213D01*
X16445Y27315D01*
X16547Y27448D01*
X16611Y27604D01*
X16633Y27770D01*
X16611Y27936D01*
X16547Y28091D01*
X16445Y28225D01*
X16312Y28327D01*
X16156Y28391D01*
X15990Y28413D01*
D02*
G37*
G36*
X13450D02*
X13284Y28391D01*
X13128Y28327D01*
X12995Y28225D01*
X12893Y28091D01*
X12829Y27936D01*
X12807Y27770D01*
X12829Y27604D01*
X12893Y27448D01*
X12995Y27315D01*
X13128Y27213D01*
X13284Y27149D01*
X13450Y27127D01*
X13616Y27149D01*
X13771Y27213D01*
X13905Y27315D01*
X14007Y27448D01*
X14071Y27604D01*
X14093Y27770D01*
X14071Y27936D01*
X14007Y28091D01*
X13905Y28225D01*
X13771Y28327D01*
X13616Y28391D01*
X13450Y28413D01*
D02*
G37*
G36*
X21070D02*
X20904Y28391D01*
X20749Y28327D01*
X20615Y28225D01*
X20513Y28091D01*
X20449Y27936D01*
X20427Y27770D01*
X20449Y27604D01*
X20513Y27448D01*
X20615Y27315D01*
X20749Y27213D01*
X20904Y27149D01*
X21070Y27127D01*
X21236Y27149D01*
X21392Y27213D01*
X21525Y27315D01*
X21627Y27448D01*
X21691Y27604D01*
X21713Y27770D01*
X21691Y27936D01*
X21627Y28091D01*
X21525Y28225D01*
X21392Y28327D01*
X21236Y28391D01*
X21070Y28413D01*
D02*
G37*
G36*
X3500Y6019D02*
X3106Y5988D01*
X2722Y5895D01*
X2356Y5744D01*
X2020Y5538D01*
X1719Y5281D01*
X1462Y4980D01*
X1256Y4643D01*
X1105Y4278D01*
X1012Y3894D01*
X981Y3500D01*
X1012Y3106D01*
X1105Y2722D01*
X1256Y2356D01*
X1462Y2020D01*
X1719Y1719D01*
X2020Y1462D01*
X2356Y1256D01*
X2722Y1105D01*
X3106Y1012D01*
X3500Y981D01*
X3894Y1012D01*
X4278Y1105D01*
X4643Y1256D01*
X4980Y1462D01*
X5281Y1719D01*
X5538Y2020D01*
X5744Y2356D01*
X5895Y2722D01*
X5988Y3106D01*
X6019Y3500D01*
X5988Y3894D01*
X5895Y4278D01*
X5744Y4643D01*
X5538Y4980D01*
X5281Y5281D01*
X4980Y5538D01*
X4643Y5744D01*
X4278Y5895D01*
X3894Y5988D01*
X3500Y6019D01*
D02*
G37*
G36*
X23610Y28413D02*
X23444Y28391D01*
X23288Y28327D01*
X23155Y28225D01*
X23053Y28091D01*
X22989Y27936D01*
X22967Y27770D01*
X22989Y27604D01*
X23053Y27448D01*
X23155Y27315D01*
X23288Y27213D01*
X23444Y27149D01*
X23610Y27127D01*
X23776Y27149D01*
X23931Y27213D01*
X24065Y27315D01*
X24167Y27448D01*
X24231Y27604D01*
X24253Y27770D01*
X24231Y27936D01*
X24167Y28091D01*
X24065Y28225D01*
X23931Y28327D01*
X23776Y28391D01*
X23610Y28413D01*
D02*
G37*
G36*
X26150Y25873D02*
X25984Y25851D01*
X25829Y25787D01*
X25695Y25685D01*
X25593Y25552D01*
X25529Y25396D01*
X25507Y25230D01*
X25529Y25064D01*
X25593Y24909D01*
X25695Y24775D01*
X25829Y24673D01*
X25984Y24609D01*
X26150Y24587D01*
X26316Y24609D01*
X26472Y24673D01*
X26605Y24775D01*
X26707Y24909D01*
X26771Y25064D01*
X26793Y25230D01*
X26771Y25396D01*
X26707Y25552D01*
X26605Y25685D01*
X26472Y25787D01*
X26316Y25851D01*
X26150Y25873D01*
D02*
G37*
G36*
X28690D02*
X28524Y25851D01*
X28368Y25787D01*
X28235Y25685D01*
X28133Y25552D01*
X28069Y25396D01*
X28047Y25230D01*
X28069Y25064D01*
X28133Y24909D01*
X28235Y24775D01*
X28368Y24673D01*
X28524Y24609D01*
X28690Y24587D01*
X28856Y24609D01*
X29011Y24673D01*
X29145Y24775D01*
X29247Y24909D01*
X29311Y25064D01*
X29333Y25230D01*
X29311Y25396D01*
X29247Y25552D01*
X29145Y25685D01*
X29011Y25787D01*
X28856Y25851D01*
X28690Y25873D01*
D02*
G37*
G36*
X36310D02*
X36144Y25851D01*
X35988Y25787D01*
X35855Y25685D01*
X35753Y25552D01*
X35689Y25396D01*
X35667Y25230D01*
X35689Y25064D01*
X35753Y24909D01*
X35855Y24775D01*
X35988Y24673D01*
X36144Y24609D01*
X36310Y24587D01*
X36476Y24609D01*
X36632Y24673D01*
X36765Y24775D01*
X36867Y24909D01*
X36931Y25064D01*
X36953Y25230D01*
X36931Y25396D01*
X36867Y25552D01*
X36765Y25685D01*
X36632Y25787D01*
X36476Y25851D01*
X36310Y25873D01*
D02*
G37*
G36*
X61500Y6019D02*
X61106Y5988D01*
X60722Y5895D01*
X60357Y5744D01*
X60020Y5538D01*
X59719Y5281D01*
X59462Y4980D01*
X59256Y4643D01*
X59105Y4278D01*
X59012Y3894D01*
X58981Y3500D01*
X59012Y3106D01*
X59105Y2722D01*
X59256Y2356D01*
X59462Y2020D01*
X59719Y1719D01*
X60020Y1462D01*
X60357Y1256D01*
X60722Y1105D01*
X61106Y1012D01*
X61500Y981D01*
X61894Y1012D01*
X62278Y1105D01*
X62597Y1237D01*
X62636Y1186D01*
X62808Y1053D01*
X63009Y970D01*
X63225Y942D01*
X63441Y970D01*
X63642Y1053D01*
X63814Y1186D01*
X63947Y1358D01*
X64030Y1559D01*
X64058Y1775D01*
X64030Y1991D01*
X63947Y2192D01*
X63814Y2364D01*
X63763Y2403D01*
X63895Y2722D01*
X63988Y3106D01*
X64019Y3500D01*
X63988Y3894D01*
X63895Y4278D01*
X63744Y4643D01*
X63538Y4980D01*
X63281Y5281D01*
X62980Y5538D01*
X62644Y5744D01*
X62278Y5895D01*
X61894Y5988D01*
X61500Y6019D01*
D02*
G37*
G36*
X44825Y8575D02*
X41325D01*
Y6875D01*
X42319D01*
Y4500D01*
X42325Y4451D01*
Y3876D01*
X42175D01*
X42174Y3876D01*
X42174Y3875D01*
Y2075D01*
X42174Y2074D01*
X42175Y2074D01*
X43975D01*
X43976Y2074D01*
X43976Y2075D01*
Y3875D01*
X43976Y3876D01*
X43975Y3876D01*
X43825D01*
Y4451D01*
X43831Y4500D01*
Y6875D01*
X44825D01*
Y8575D01*
D02*
G37*
G36*
Y14575D02*
X41325D01*
Y12875D01*
X44825D01*
Y14575D01*
D02*
G37*
G36*
Y12575D02*
X41325D01*
Y10875D01*
X44825D01*
Y12575D01*
D02*
G37*
G36*
X49010Y25873D02*
X48844Y25851D01*
X48688Y25787D01*
X48555Y25685D01*
X48453Y25552D01*
X48389Y25396D01*
X48367Y25230D01*
X48389Y25064D01*
X48453Y24909D01*
X48555Y24775D01*
X48688Y24673D01*
X48844Y24609D01*
X49010Y24587D01*
X49176Y24609D01*
X49332Y24673D01*
X49465Y24775D01*
X49567Y24909D01*
X49631Y25064D01*
X49653Y25230D01*
X49631Y25396D01*
X49567Y25552D01*
X49465Y25685D01*
X49332Y25787D01*
X49176Y25851D01*
X49010Y25873D01*
D02*
G37*
G36*
X46470D02*
X46304Y25851D01*
X46148Y25787D01*
X46015Y25685D01*
X45913Y25552D01*
X45849Y25396D01*
X45827Y25230D01*
X45849Y25064D01*
X45913Y24909D01*
X46015Y24775D01*
X46148Y24673D01*
X46304Y24609D01*
X46470Y24587D01*
X46636Y24609D01*
X46792Y24673D01*
X46925Y24775D01*
X47027Y24909D01*
X47091Y25064D01*
X47113Y25230D01*
X47091Y25396D01*
X47027Y25552D01*
X46925Y25685D01*
X46792Y25787D01*
X46636Y25851D01*
X46470Y25873D01*
D02*
G37*
G36*
X13775Y23375D02*
X12675D01*
Y21975D01*
X13775D01*
Y23375D01*
D02*
G37*
%LPD*%
D10*
X56750Y17000D02*
D03*
X56250D02*
D03*
X55750D02*
D03*
X55250D02*
D03*
X54750D02*
D03*
Y13000D02*
D03*
X55250D02*
D03*
X55750D02*
D03*
X56250D02*
D03*
X56750D02*
D03*
X3800Y18500D02*
D03*
X4300D02*
D03*
X4800D02*
D03*
X5300D02*
D03*
Y21500D02*
D03*
X4800Y21500D02*
D03*
X4300D02*
D03*
X3800D02*
D03*
D11*
X53750Y16000D02*
D03*
Y15500D02*
D03*
Y15000D02*
D03*
Y14500D02*
D03*
Y14000D02*
D03*
X57750D02*
D03*
Y14500D02*
D03*
Y15000D02*
D03*
Y15500D02*
D03*
Y16000D02*
D03*
X3050Y19250D02*
D03*
Y19750D02*
D03*
X6050Y19750D02*
D03*
Y19250D02*
D03*
Y20250D02*
D03*
Y20750D02*
D03*
X3050D02*
D03*
X3050Y20250D02*
D03*
D12*
X55750Y15000D02*
D03*
D13*
X4550Y20000D02*
D03*
D14*
X5250Y14750D02*
D03*
X5250Y8250D02*
D03*
D15*
X11000Y10500D02*
D03*
Y12500D02*
D03*
D16*
X61825Y14450D02*
D03*
D17*
X62450Y12400D02*
D03*
X64050D02*
D03*
Y16500D02*
D03*
X62450D02*
D03*
D18*
X975Y21325D02*
D03*
X1975D02*
D03*
D19*
Y20525D02*
D03*
X975D02*
D03*
X1975Y19675D02*
D03*
X975D02*
D03*
X925Y18000D02*
D03*
X1925D02*
D03*
X2525Y17100D02*
D03*
X3525D02*
D03*
X7100Y18600D02*
D03*
X8100D02*
D03*
X7100Y17700D02*
D03*
X8100D02*
D03*
X8100Y19600D02*
D03*
X7100D02*
D03*
X14400Y17425D02*
D03*
X13400D02*
D03*
Y16525D02*
D03*
X14400D02*
D03*
X16475Y15625D02*
D03*
X15475D02*
D03*
X21700Y10700D02*
D03*
X22700D02*
D03*
X10175Y3000D02*
D03*
X11175D02*
D03*
X23600Y16700D02*
D03*
X24600D02*
D03*
X47800Y22425D02*
D03*
X46800D02*
D03*
X58850Y14325D02*
D03*
X59850Y14325D02*
D03*
X63300Y10350D02*
D03*
X64300D02*
D03*
X63300Y6850D02*
D03*
X64300D02*
D03*
X63300Y17625D02*
D03*
X64300D02*
D03*
X56125Y23025D02*
D03*
X57125Y23025D02*
D03*
D20*
X1855Y18825D02*
D03*
X975Y18825D02*
D03*
X18125Y15625D02*
D03*
X19005D02*
D03*
X16175Y4550D02*
D03*
X17055D02*
D03*
X21700Y7400D02*
D03*
X22580Y7400D02*
D03*
X23250Y21275D02*
D03*
X24130D02*
D03*
X53595Y18825D02*
D03*
X54475Y18825D02*
D03*
Y18000D02*
D03*
X53595D02*
D03*
X56300Y19500D02*
D03*
X55420D02*
D03*
Y18650D02*
D03*
X56300D02*
D03*
X57705Y11800D02*
D03*
X56825D02*
D03*
X57155Y7050D02*
D03*
X56275D02*
D03*
X54045Y9925D02*
D03*
X54925D02*
D03*
X53020Y11925D02*
D03*
X53900D02*
D03*
X51845Y14375D02*
D03*
X52725D02*
D03*
X53570Y6125D02*
D03*
X54450Y6125D02*
D03*
D21*
X9800Y21100D02*
D03*
X8100D02*
D03*
D22*
X6375Y23475D02*
D03*
Y22475D02*
D03*
X13750Y13500D02*
D03*
X13750Y12500D02*
D03*
X45575Y14425D02*
D03*
Y15425D02*
D03*
D23*
X11325Y20175D02*
D03*
X12275D02*
D03*
X13225D02*
D03*
X13225Y22675D02*
D03*
X11325Y22675D02*
D03*
D24*
X12825Y18875D02*
D03*
X11325Y18875D02*
D03*
X12450Y17430D02*
D03*
X10950D02*
D03*
X13750Y11000D02*
D03*
X15250D02*
D03*
X60100Y22975D02*
D03*
X61600D02*
D03*
D25*
X15475Y17600D02*
D03*
Y19100D02*
D03*
X16450Y11000D02*
D03*
Y9500D02*
D03*
X61250Y19600D02*
D03*
Y18100D02*
D03*
X59200Y21775D02*
D03*
Y23275D02*
D03*
D26*
X17325Y15625D02*
D03*
Y14745D02*
D03*
X16450Y12075D02*
D03*
Y12955D02*
D03*
X20500Y20000D02*
D03*
Y20880D02*
D03*
X18200Y20425D02*
D03*
X18200Y21305D02*
D03*
X58850Y16030D02*
D03*
X58850Y15150D02*
D03*
X58750Y13305D02*
D03*
X58750Y12425D02*
D03*
X55975Y11800D02*
D03*
X55975Y10920D02*
D03*
X56025Y8975D02*
D03*
X56025Y8095D02*
D03*
X55025Y11800D02*
D03*
Y10920D02*
D03*
X51850Y13500D02*
D03*
Y12620D02*
D03*
Y15675D02*
D03*
Y16555D02*
D03*
D27*
X20200Y12075D02*
D03*
X19300D02*
D03*
X18400D02*
D03*
X17500D02*
D03*
X17500Y13275D02*
D03*
X18400Y13275D02*
D03*
X19300Y13275D02*
D03*
X20200Y13275D02*
D03*
D28*
X14075Y6275D02*
D03*
Y7275D02*
D03*
X17100Y6400D02*
D03*
Y5400D02*
D03*
X10175Y4725D02*
D03*
X10175Y5725D02*
D03*
X8600Y2175D02*
D03*
Y1175D02*
D03*
X12275Y3000D02*
D03*
Y2000D02*
D03*
X19500Y8750D02*
D03*
Y7750D02*
D03*
X20500Y7875D02*
D03*
Y6875D02*
D03*
X62800Y19500D02*
D03*
Y18500D02*
D03*
Y22425D02*
D03*
Y23425D02*
D03*
D29*
X14720Y3550D02*
D03*
X13450Y5050D02*
D03*
Y4550D02*
D03*
Y4050D02*
D03*
Y3550D02*
D03*
X14720Y4050D02*
D03*
Y4550D02*
D03*
Y5050D02*
D03*
D30*
X14085Y3440D02*
D03*
Y5160D02*
D03*
D31*
X9100Y5425D02*
D03*
X8100D02*
D03*
X8600Y4125D02*
D03*
D32*
X9800Y2175D02*
D03*
Y1175D02*
D03*
X11100Y1675D02*
D03*
X61250Y21350D02*
D03*
Y20350D02*
D03*
X62550Y20850D02*
D03*
D33*
X23150Y9000D02*
D03*
D34*
X21700Y9250D02*
D03*
X21700Y8750D02*
D03*
Y8250D02*
D03*
X24600D02*
D03*
X24600Y8750D02*
D03*
Y9250D02*
D03*
Y9750D02*
D03*
X21700Y9750D02*
D03*
D35*
X23250Y20250D02*
D03*
Y17750D02*
D03*
X22750D02*
D03*
X22250D02*
D03*
X22750Y20250D02*
D03*
X22250D02*
D03*
D36*
X24000Y20000D02*
D03*
X24000Y19500D02*
D03*
Y19000D02*
D03*
Y18500D02*
D03*
X24000Y18000D02*
D03*
X21500D02*
D03*
X21500Y18500D02*
D03*
Y19000D02*
D03*
Y19500D02*
D03*
X21500Y20000D02*
D03*
D37*
X16750Y16820D02*
D03*
X17400Y16820D02*
D03*
X18050Y16820D02*
D03*
X18700Y16820D02*
D03*
Y19220D02*
D03*
X18050D02*
D03*
X17400D02*
D03*
X16750D02*
D03*
D38*
X28075Y15725D02*
D03*
Y17725D02*
D03*
Y19725D02*
D03*
Y21725D02*
D03*
Y13725D02*
D03*
X28075Y11725D02*
D03*
Y9725D02*
D03*
Y7725D02*
D03*
X43075Y7725D02*
D03*
Y9725D02*
D03*
Y11725D02*
D03*
Y13725D02*
D03*
Y15725D02*
D03*
Y17725D02*
D03*
Y19725D02*
D03*
Y21725D02*
D03*
D39*
X45575Y19140D02*
D03*
Y18300D02*
D03*
X55400Y7050D02*
D03*
Y6210D02*
D03*
X54925Y8950D02*
D03*
Y8110D02*
D03*
D40*
X46800Y19150D02*
D03*
Y20550D02*
D03*
D41*
X56865Y9925D02*
D03*
X56025D02*
D03*
D42*
X43075Y4500D02*
D03*
X55400Y4450D02*
D03*
D43*
X44550Y2975D02*
D03*
X41600D02*
D03*
X53925Y2925D02*
D03*
X56875D02*
D03*
D44*
X63225Y1775D02*
D03*
X63300Y28300D02*
D03*
X1700D02*
D03*
D45*
X48350Y12875D02*
D03*
Y16875D02*
D03*
X50750D02*
D03*
Y12875D02*
D03*
D46*
X64000Y9350D02*
D03*
X64000Y7850D02*
D03*
X64000Y20850D02*
D03*
X64000Y19350D02*
D03*
X64000Y23675D02*
D03*
X64000Y22175D02*
D03*
D47*
X43075Y9725D02*
X45250D01*
X28075Y7725D02*
X30250D01*
X25900Y21725D02*
X28075D01*
X24885Y29225D02*
X26155D01*
X4550Y17050D02*
Y17531D01*
X37580Y23790D02*
Y29175D01*
X14725Y29230D02*
X22340D01*
X24880D01*
X45575Y16400D02*
Y17425D01*
X26155Y29225D02*
X26555Y28825D01*
X47175Y10050D02*
X51000D01*
X51725Y10775D01*
X5369Y22469D02*
X6731D01*
X8100Y21100D01*
X29950Y29175D02*
X32500D01*
X45200D01*
X50275D01*
X26555Y28825D02*
X29600D01*
X29950Y29175D01*
X6666Y28746D02*
X7090Y29170D01*
X12185Y29170D01*
X46575Y10650D02*
Y18875D01*
X46800Y19100D01*
X46575Y10650D02*
X47175Y10050D01*
D48*
X31475Y22375D02*
X32175D01*
X30875Y21775D02*
X31475Y22375D01*
X31550Y20325D02*
X32200Y19675D01*
X31550Y20325D02*
Y21550D01*
X60325Y22325D02*
X60600Y22050D01*
X59375Y22700D02*
X59650Y22975D01*
X60100D01*
X61900Y17050D02*
X62450Y16500D01*
X63050Y22175D02*
X64000D01*
X62800Y22425D02*
X63050Y22175D01*
X62550Y20850D02*
X64000D01*
X61250Y19600D02*
Y20350D01*
X61150Y20450D02*
X61250Y20350D01*
Y21875D02*
X61600Y22225D01*
X61250Y21550D02*
Y21875D01*
Y21350D02*
X61725D01*
X63300Y10350D02*
X63500Y10150D01*
X38820Y17675D02*
X39795Y16700D01*
X44575D01*
X21275Y14175D02*
Y15924D01*
X22038Y16362D02*
Y16840D01*
X20725Y16925D02*
X21825Y15825D01*
Y13000D02*
Y15825D01*
X20900Y12075D02*
X21825Y13000D01*
X22038Y16840D02*
X22250Y17053D01*
X21700Y11825D02*
X24850D01*
X20925Y11050D02*
X21700Y11825D01*
X20200Y13275D02*
Y14375D01*
X20350Y16849D02*
X21275Y15924D01*
X21700Y11275D02*
X21925Y11500D01*
X21700Y10700D02*
Y11275D01*
X20200Y12075D02*
X20900D01*
X17100Y6400D02*
Y7800D01*
X20925Y9450D02*
Y11050D01*
X49300Y21800D02*
Y23175D01*
X48700Y23775D02*
X49300Y23175D01*
X47725Y23775D02*
X48700D01*
X36725Y17675D02*
X38820D01*
X20250Y18500D02*
X20725D01*
X19450Y19300D02*
X20250Y18500D01*
X19450Y19300D02*
Y20000D01*
X18700Y19000D02*
X20350Y17350D01*
Y16849D02*
Y17350D01*
X18700Y19000D02*
Y19220D01*
X20725Y16925D02*
Y18500D01*
X42338Y17725D02*
X43075D01*
X47275Y23775D02*
X47725D01*
X52441Y24734D02*
Y25644D01*
X44925Y17050D02*
Y25675D01*
X5300Y21500D02*
X6150D01*
X1925Y7060D02*
X2335Y6650D01*
X1925Y7060D02*
Y18000D01*
X3800Y17950D02*
Y18500D01*
X3525Y17100D02*
Y17675D01*
X3800Y17950D01*
X2335Y6650D02*
X5200D01*
X21700Y10700D02*
X21700Y10700D01*
X21700Y9750D02*
Y10700D01*
X14850Y5050D02*
X16200Y6400D01*
X14720Y5050D02*
X14850D01*
X14075Y5170D02*
Y6275D01*
Y5170D02*
X14085Y5160D01*
X13450Y3500D02*
Y3550D01*
X11175Y3000D02*
X12275D01*
X26050Y12850D02*
Y16300D01*
X6950Y19750D02*
X7100Y19600D01*
X6050Y19750D02*
X6950D01*
X2425Y18825D02*
X2850Y19250D01*
X3050D01*
X1975Y19675D02*
X2050Y19750D01*
X3050D01*
X1975Y20525D02*
X2175Y20325D01*
X2475D01*
X2550Y20250D01*
X3050D01*
X26050Y12850D02*
X27175Y11725D01*
X28075D01*
X11720Y4550D02*
X11745Y4575D01*
X13450D01*
Y4550D02*
Y4575D01*
X9550Y20250D02*
X9975Y19825D01*
X6050Y20250D02*
X9550D01*
X53530Y16000D02*
X53750D01*
X53200Y16330D02*
X53530Y16000D01*
X53245Y15500D02*
X53750D01*
X52600Y16145D02*
X53245Y15500D01*
X53200Y16330D02*
Y16700D01*
X55400Y7050D02*
X55400Y7050D01*
X57750Y16000D02*
X57950D01*
X57750Y14500D02*
X58675D01*
X58850Y14325D01*
X56250Y17000D02*
X56325Y17075D01*
Y17450D01*
X56750Y17000D02*
Y17250D01*
X63800Y21050D02*
X64000Y20850D01*
X62225Y10350D02*
X63300D01*
X16200Y6400D02*
X17100D01*
X20925Y9450D02*
X21125Y9250D01*
X21700D01*
X19500Y8750D02*
X20200Y9450D01*
X20925D01*
X14720Y1280D02*
Y3550D01*
Y1280D02*
X14725Y1275D01*
X14720Y4050D02*
X15300D01*
X15750Y3600D01*
Y2350D02*
Y3600D01*
X18400Y11075D02*
Y12075D01*
X18400Y11075D02*
X18400Y11075D01*
X17400Y15700D02*
Y16820D01*
X17325Y15625D02*
X17400Y15700D01*
X16475Y15625D02*
X17325D01*
X14400Y16525D02*
Y17425D01*
X18050Y19220D02*
Y20425D01*
Y18412D02*
Y19220D01*
X15820Y16820D02*
X16750D01*
X15525Y16525D02*
X15820Y16820D01*
X14400Y16525D02*
X15525D01*
X14400Y16525D02*
X14400Y16525D01*
X14400Y16525D01*
X17400Y18600D02*
Y19220D01*
Y16820D02*
Y17475D01*
X17275Y17600D02*
X17400Y17475D01*
X15475Y17600D02*
X17275D01*
X22750Y20250D02*
Y21750D01*
X22175Y22325D02*
X22750Y21750D01*
X22250Y20250D02*
Y20700D01*
X20925Y22025D02*
X22250Y20700D01*
Y17053D02*
Y17750D01*
X10950Y17430D02*
X12395Y18875D01*
X12825D01*
X17275Y19345D02*
X17400Y19220D01*
X9100Y5425D02*
X9400Y5725D01*
X10175D01*
X13663Y9212D01*
X20725Y18500D02*
X21500D01*
X19025Y20425D02*
X19450Y20000D01*
X23250Y17050D02*
Y17750D01*
Y17050D02*
X23600Y16700D01*
X26050Y16300D02*
X26500Y16750D01*
X46800Y22425D02*
Y23300D01*
X16750Y19220D02*
Y20900D01*
X17050Y21200D01*
X46800Y23300D02*
X47275Y23775D01*
X19025Y20425D02*
Y21575D01*
X17050Y21200D02*
Y22150D01*
X44575Y16700D02*
X44925Y17050D01*
X13225Y20015D02*
Y20175D01*
X28075Y19725D02*
X30100D01*
X30875Y20500D01*
Y21775D01*
X58800Y24425D02*
X59800Y23425D01*
X52441Y24734D02*
X52750Y24425D01*
X58800D01*
X61600Y22225D02*
Y23300D01*
X59975Y23423D02*
X61478D01*
X61600Y23300D01*
X59800Y23425D02*
X59972D01*
X59975Y23423D01*
X58175Y25650D02*
X60035Y23790D01*
X62435D01*
X62800Y23425D01*
X52600Y16145D02*
Y17250D01*
X56325Y17450D02*
X56625Y17750D01*
X57300D01*
X57950Y16000D02*
X58200Y16250D01*
X56750Y17250D02*
X56900Y17400D01*
X56900Y17400D01*
X57725D01*
X61575Y20850D02*
X61750Y20675D01*
X62060Y18240D02*
Y21015D01*
X61725Y21350D02*
X62060Y21015D01*
X60925Y20450D02*
X61150D01*
X59200Y21775D02*
X60040D01*
X60965Y20850D01*
X61575D01*
X60100Y21275D02*
X60925Y20450D01*
X61900Y17050D02*
Y17500D01*
X30105Y18880D02*
X30625Y19400D01*
X30800Y18575D02*
X31625Y19400D01*
X48825Y21275D02*
X48925D01*
X17763Y18125D02*
X18050Y18412D01*
X15350Y18450D02*
X17250D01*
X17400Y18600D01*
X12825Y18875D02*
X14425D01*
X15175Y18125D01*
X17763D01*
X13225Y20015D02*
X14015Y19225D01*
X14575D01*
X15350Y18450D01*
X12275Y3000D02*
X12575Y3300D01*
X12850D01*
X13050Y3500D01*
X13450D01*
X12750Y4050D02*
X13450D01*
X12625Y3925D02*
X12750Y4050D01*
X58200Y16250D02*
Y17125D01*
X58375Y17300D01*
Y19300D01*
X57300Y17750D02*
X57775Y18225D01*
Y18650D01*
X48925Y21275D02*
X49750Y20450D01*
X49300Y21800D02*
X49625Y21475D01*
X50575D01*
X14875Y21450D02*
Y22925D01*
X17275Y19345D02*
X17400Y19470D01*
Y20225D01*
X22038Y16362D02*
X22375Y16025D01*
Y14950D02*
Y16025D01*
X17100Y7800D02*
X22375Y13075D01*
Y14950D01*
X41963Y17350D02*
X42338Y17725D01*
X24000Y19000D02*
X24075Y19075D01*
X24000Y18000D02*
X24075Y17925D01*
X24000Y18500D02*
X24750D01*
X24000Y20000D02*
X24450Y20450D01*
X25400D01*
X24550Y19650D02*
X24750D01*
X24400Y19500D02*
X24550Y19650D01*
X24000Y19500D02*
X24400D01*
X1975Y18825D02*
X2425D01*
X1925Y18775D02*
X1975Y18825D01*
X1925Y18000D02*
Y18755D01*
X1855Y18825D02*
X1925Y18755D01*
X49750Y20450D02*
X51100D01*
X51925Y21275D02*
X60100D01*
X57125Y23025D02*
X58400D01*
X58650Y23275D01*
X59200D01*
X61250Y18150D02*
X61750Y18650D01*
Y20675D01*
X62450Y12400D02*
X62775Y12725D01*
Y16175D01*
X62450Y16500D02*
X62775Y16175D01*
X53425Y14000D02*
X53750D01*
X24075Y17925D02*
X25700D01*
X26350Y18575D01*
X30800D01*
X24075Y19075D02*
X25450D01*
X25645Y18880D01*
X30105D01*
X32175Y20500D02*
Y21475D01*
Y20500D02*
X32650Y20025D01*
X33000Y20800D02*
X33900Y21700D01*
X28075Y13725D02*
X28425Y14075D01*
X29800D01*
X30350Y14625D01*
X30225Y11075D02*
Y13650D01*
X30825Y14250D01*
Y15100D01*
X51100Y20450D02*
X51925Y21275D01*
X50850Y21000D02*
X51450Y21600D01*
X50575Y21475D02*
X51025Y21925D01*
X49975Y22025D02*
X50250Y22300D01*
X56850D01*
X57125Y22575D01*
Y23025D01*
X51025Y21925D02*
X57400D01*
X58175Y22700D01*
X59375D01*
X51450Y21600D02*
X57650D01*
X58375Y22325D01*
X60325D01*
X39575Y17750D02*
X39975Y17350D01*
X41963D01*
X44775Y26775D02*
X45000Y27000D01*
Y27900D01*
Y26450D02*
X45300Y26750D01*
X44925Y25675D02*
X45650Y26400D01*
X51685D01*
X52441Y25644D01*
X43275Y26775D02*
X44775D01*
X43500Y26450D02*
X45000D01*
X42725Y26225D02*
X43275Y26775D01*
X43050Y26000D02*
X43500Y26450D01*
X51800Y26750D02*
X52725Y25825D01*
X53175D01*
X45300Y26750D02*
X51800D01*
X52625Y27025D02*
Y28450D01*
X53075Y28900D01*
X57575D01*
X58175Y28300D01*
Y25650D02*
Y28300D01*
X63875Y9350D02*
X64000D01*
X63500Y9725D02*
X63875Y9350D01*
X63500Y9725D02*
Y10150D01*
X14075Y6275D02*
X15075D01*
X20200Y11400D01*
Y12075D01*
X39575Y17750D02*
Y21900D01*
X40125Y21675D02*
Y21800D01*
X42375Y24025D02*
Y26350D01*
X42725Y23925D02*
Y26225D01*
X43050Y23775D02*
Y26000D01*
X39575Y21900D02*
X41250Y23575D01*
X41925D01*
X42375Y24025D01*
X40125Y21800D02*
X41525Y23200D01*
X42000D01*
X42725Y23925D01*
X41650Y22825D02*
X42100D01*
X43050Y23775D01*
X40150Y26950D02*
X40550Y26550D01*
X42175D01*
X42375Y26350D01*
X39575Y24375D02*
Y27250D01*
X40150Y27825D01*
Y28300D01*
X21925Y11500D02*
X24675D01*
X24850Y11825D02*
X25800Y10875D01*
X30025D01*
X30225Y11075D01*
X24675Y11500D02*
X25605Y10570D01*
X30270D01*
X30575Y10875D01*
Y13400D01*
X31300Y14125D01*
Y15050D01*
X38350Y22100D01*
Y22250D01*
X30825Y15100D02*
X37600Y21875D01*
Y22400D01*
X39575Y24375D01*
X30350Y14625D02*
Y15230D01*
X33375Y18255D01*
X28075Y15725D02*
X30275D01*
X33000Y18450D01*
Y20800D01*
X26500Y16750D02*
X30709D01*
X32650Y18691D01*
Y20025D01*
X28075Y17725D02*
X31075D01*
X32200Y18850D01*
Y19675D01*
X32175Y21475D02*
X32775Y22075D01*
X33375Y18255D02*
Y20225D01*
X34500Y21350D01*
Y22070D01*
X34250Y26750D02*
X35300Y27800D01*
X32325Y23600D02*
X32775Y23150D01*
Y22075D02*
Y23150D01*
X32725Y23845D02*
X34500Y22070D01*
X30200Y27675D02*
X31075Y26800D01*
X31675D01*
X32325Y26150D01*
Y23600D02*
Y26150D01*
X32725Y23845D02*
Y26225D01*
X33250Y26750D01*
X34250D01*
X40325Y17925D02*
Y20830D01*
X40775Y21280D01*
Y21950D01*
X41650Y22825D01*
X13376Y2251D02*
X14085Y2960D01*
Y3440D01*
X5200Y6650D02*
X6950Y4900D01*
X15475Y19100D02*
Y22558D01*
X16267Y23350D01*
X22350D01*
X51850Y15675D02*
X52425D01*
X53100Y15000D01*
X53750D01*
X61400Y11175D02*
X62225Y10350D01*
X61400Y11175D02*
Y12615D01*
X61250Y12765D02*
X61400Y12615D01*
X61250Y12765D02*
Y18150D01*
X48350Y16543D02*
Y16875D01*
Y16543D02*
X49218Y15675D01*
X51850D01*
X62675Y17625D02*
X63000D01*
X62060Y18240D02*
X62675Y17625D01*
X52925Y13500D02*
X53425Y14000D01*
X51850Y13500D02*
X52925D01*
X50825D02*
X51850D01*
X50750Y13425D02*
X50825Y13500D01*
D49*
X63500Y11400D02*
Y11850D01*
X64050Y12400D01*
Y16500D01*
X24600Y15825D02*
Y16700D01*
Y12875D02*
Y15825D01*
X20500Y6875D02*
X20500Y6875D01*
X19500Y6875D02*
X20500D01*
X19500D02*
Y7750D01*
X18025Y5400D02*
X19500Y6875D01*
X17100Y5400D02*
X18025D01*
X27450Y23775D02*
Y27740D01*
X56825Y11800D02*
Y11950D01*
X56250Y12525D02*
X56825Y11950D01*
X56250Y12525D02*
Y13000D01*
X57100Y12425D02*
X58750D01*
X56750Y12775D02*
X57100Y12425D01*
X56750Y12775D02*
Y13000D01*
X6535Y20850D02*
X7000D01*
X6435Y20750D02*
X6535Y20850D01*
X6050Y20750D02*
X6435D01*
X2525Y16250D02*
Y17100D01*
X22700Y10700D02*
X23550D01*
X21700Y8250D02*
X21700Y8250D01*
Y7400D02*
Y8250D01*
X22575Y7400D02*
X23425D01*
X21700Y6400D02*
Y7400D01*
X23250Y20250D02*
Y21275D01*
X19625Y20875D02*
X20495D01*
X16175Y4550D02*
Y5400D01*
Y4530D02*
Y4550D01*
X14720D02*
X16175D01*
X20500Y20000D02*
X21500D01*
X23250Y21275D02*
Y22125D01*
X24130Y21255D02*
Y22125D01*
X20500Y19125D02*
Y20000D01*
X54750Y17000D02*
Y17725D01*
X54475Y18000D02*
X54750Y17725D01*
X54475Y18000D02*
Y18825D01*
X57750Y15000D02*
X58310D01*
X58460Y15150D01*
X58850D01*
X55250Y17000D02*
Y18330D01*
X55424Y18504D01*
X55420Y19500D02*
X55424Y18504D01*
X64300Y6050D02*
Y6850D01*
X63300D02*
Y7250D01*
X63900Y7850D01*
X64000Y23675D02*
Y24525D01*
X20500Y7875D02*
Y8750D01*
X21700D01*
X16175Y5400D02*
X17100D01*
X17055Y4550D02*
X18050D01*
X18700Y16820D02*
X19695D01*
X17325Y14745D02*
X17545Y14525D01*
X18400D01*
X18400Y14525D01*
Y13275D02*
Y14525D01*
X18700Y16575D02*
Y16820D01*
Y16575D02*
X19005Y16270D01*
Y15625D02*
Y16270D01*
X18400Y14525D02*
X19005Y15130D01*
Y15625D01*
X19300Y13275D02*
Y14290D01*
Y14500D02*
X20400Y15600D01*
X19300Y14290D02*
Y14500D01*
X14075Y7275D02*
Y8175D01*
X14600Y9500D02*
X16450D01*
X10175Y3000D02*
Y3850D01*
Y4725D01*
X10175Y4725D02*
X10175Y4725D01*
X13750Y14400D02*
X13750Y14400D01*
X24600Y8250D02*
X25450D01*
X24600Y9250D02*
X25450D01*
X24600Y8750D02*
X25450D01*
Y8250D02*
Y8750D01*
Y9250D01*
X24600Y9750D02*
X25325D01*
X25450Y9625D01*
Y9250D02*
Y9625D01*
X64300Y17625D02*
Y18475D01*
X62825D02*
X64300D01*
X62800Y18500D02*
X62825Y18475D01*
X62950Y19350D02*
X64000D01*
X62800Y19500D02*
X62950Y19350D01*
X58500Y29750D02*
Y29775D01*
X64425Y10225D02*
Y11125D01*
X64300Y10350D02*
X64425Y10225D01*
X925Y17150D02*
Y18000D01*
X57675Y11225D02*
X58225Y10675D01*
X57325Y11225D02*
X57675D01*
X56825Y11725D02*
Y11800D01*
Y11725D02*
X57325Y11225D01*
X52725Y14375D02*
Y14550D01*
X23250Y22125D02*
Y23765D01*
X23260Y23775D01*
X14075Y8175D02*
X14600Y8700D01*
Y14750D01*
X15475Y15625D01*
X20500Y6875D02*
X20670D01*
X21195Y7400D01*
X21700D01*
X27475Y29700D02*
X27675Y29900D01*
X58375D01*
X58500Y29775D01*
X52325Y14950D02*
X52725Y14550D01*
X46575Y14656D02*
X50949D01*
X51243Y14950D01*
X52325D01*
X52725Y14375D02*
X52850Y14500D01*
X53750D01*
D50*
X11325Y21700D02*
Y22675D01*
X8975Y19500D02*
Y19600D01*
Y19500D02*
X10220Y18255D01*
X8100Y19600D02*
X8975D01*
X10220Y17185D02*
Y18255D01*
X11950Y1675D02*
X12275Y2000D01*
X8600Y1175D02*
X9800D01*
X5691Y17850D02*
X6950D01*
X6350Y19250D02*
X7000Y18600D01*
X5300Y18241D02*
X5691Y17850D01*
X4800Y21500D02*
Y22219D01*
X4550Y22469D02*
X4800Y22219D01*
X4300Y21500D02*
Y22219D01*
X4550Y22469D01*
X4550Y17531D02*
X4800Y17781D01*
Y18500D01*
X4300Y17781D02*
X4550Y17531D01*
X4300Y17781D02*
Y18500D01*
X5300Y18241D02*
Y18500D01*
X6950Y17850D02*
X7100Y17700D01*
X7000Y18600D02*
X7100D01*
X6050Y19250D02*
X6350D01*
X16450Y11000D02*
Y12075D01*
X18050Y15625D02*
Y16820D01*
X13395Y17430D02*
X13400Y17425D01*
X11325Y18875D02*
Y20175D01*
X12450Y17430D02*
X13395D01*
X11895Y16875D02*
X12450Y17430D01*
X15250Y11000D02*
X16450D01*
Y12075D02*
X17500D01*
X13750Y11000D02*
Y12500D01*
X21500Y17300D02*
Y18000D01*
X22750Y16775D02*
Y17750D01*
X7525Y11275D02*
X8750Y12500D01*
X10530Y16875D02*
X11895D01*
X10220Y17185D02*
X10530Y16875D01*
X7100Y18600D02*
X8100D01*
X7100Y17700D02*
X8100D01*
X8625Y18475D02*
X8950Y18150D01*
X8350Y18475D02*
X8625D01*
X8225Y18600D02*
X8350Y18475D01*
X8100Y18600D02*
X8225D01*
X8100Y17700D02*
X8220Y17820D01*
X8620D01*
X8950Y18150D01*
X8600Y2175D02*
X9800D01*
X7525Y1525D02*
Y11275D01*
Y1525D02*
X7875Y1175D01*
X11100Y1675D02*
X11950D01*
X7875Y1175D02*
X8600Y1175D01*
X8600Y2175D02*
Y4125D01*
Y2175D02*
X8600Y2175D01*
D51*
X56025Y8975D02*
Y9925D01*
X54925Y8950D02*
Y9925D01*
X55975Y9975D02*
X56025Y9925D01*
X55975Y9975D02*
Y10920D01*
X54925Y9925D02*
X55025Y10025D01*
Y10920D01*
X53900Y11925D02*
X54750Y12775D01*
Y13000D01*
X54450Y6125D02*
X55315D01*
X55400Y4450D02*
Y6210D01*
X55315Y6125D02*
X55400Y6210D01*
X55400Y6210D01*
X57750Y13175D02*
Y14000D01*
X57750Y13175D02*
X57750Y13175D01*
X53020Y11925D02*
Y12750D01*
X53220Y9925D02*
X54045D01*
Y9100D02*
Y9925D01*
Y10750D01*
X53570Y6125D02*
Y6950D01*
Y5300D02*
Y6125D01*
X52745D02*
X53570D01*
X57155Y6225D02*
Y7050D01*
Y7875D01*
Y7050D02*
X57980D01*
X56865Y9100D02*
Y9925D01*
Y10750D01*
Y9925D02*
X57690D01*
X52200Y11725D02*
X52820D01*
X53020Y11925D01*
D52*
X55750Y12025D02*
X55975Y11800D01*
X55750Y12025D02*
Y13000D01*
X55250Y12025D02*
Y13000D01*
X55025Y11800D02*
X55250Y12025D01*
D53*
X4800Y23425D02*
X6200Y24825D01*
X7400Y16500D02*
X8100Y15800D01*
X5100Y16500D02*
X7400D01*
X3450Y23425D02*
X4800D01*
X2375Y22350D02*
X3450Y23425D01*
X8100Y13150D02*
Y15800D01*
Y13150D02*
X8750Y12500D01*
X4550Y17050D02*
X5100Y16500D01*
X8750Y12500D02*
X11000D01*
X43075Y4500D02*
Y7725D01*
X2375Y21675D02*
Y22350D01*
X6200Y24825D02*
X7133D01*
X6666D02*
Y28746D01*
X7133Y24825D02*
X8921Y23037D01*
X9450D01*
X9812Y22675D01*
X10325D01*
D54*
X10800Y21100D02*
X11325Y20575D01*
X9800Y21100D02*
X10800D01*
X11325Y20175D02*
Y20575D01*
X10325Y22675D02*
X11325D01*
X9650Y24175D02*
X22860D01*
X23260Y23775D01*
X27450D01*
D55*
X4550Y22469D02*
X5369D01*
X55420Y19500D02*
X55424Y20675D01*
X58850Y15150D02*
X60600D01*
X58225Y10675D02*
X60350D01*
X45575Y15425D02*
Y16400D01*
X45575Y16800D02*
Y18260D01*
X43375Y15425D02*
X45575D01*
X43075Y15725D02*
X43375Y15425D01*
X11000Y12500D02*
X13750D01*
X13750Y13500D02*
Y14400D01*
X45575Y19140D02*
X46790D01*
X12275Y20175D02*
Y20950D01*
X12450Y21125D01*
X6375Y23475D02*
X6975D01*
X7175Y23275D01*
X975Y20525D02*
Y21325D01*
Y19675D02*
Y20525D01*
Y18050D02*
Y19675D01*
X925Y18000D02*
X975Y18050D01*
X51725Y10775D02*
X53004D01*
X53900Y11671D01*
Y11925D01*
X51800Y19150D02*
X53425Y20775D01*
X59910D01*
X975Y21325D02*
Y22175D01*
Y23025D01*
Y23875D01*
X46790Y19140D02*
X46800Y19150D01*
X60350Y10675D02*
X60750Y11075D01*
X59910Y20775D02*
X60600Y20085D01*
X58750Y12425D02*
X60600D01*
Y20085D01*
X60750Y11075D02*
Y12275D01*
X60600Y12425D02*
X60750Y12275D01*
D56*
X46800Y19150D02*
X51800D01*
D57*
X45575Y13600D02*
Y14425D01*
Y12850D02*
Y13600D01*
Y12100D02*
Y12850D01*
D58*
X4900Y32750D02*
Y31750D01*
X5233Y32083D01*
X5566Y31750D01*
Y32750D01*
X6066Y32416D02*
X6400D01*
X6566Y32250D01*
Y31750D01*
X6066D01*
X5900Y31917D01*
X6066Y32083D01*
X6566D01*
X6899Y31750D02*
X7233D01*
X7066D01*
Y32750D01*
X6899D01*
X7732Y32416D02*
Y31750D01*
Y32083D01*
X7899Y32250D01*
X8066Y32416D01*
X8232D01*
X8732D02*
Y31917D01*
X8899Y31750D01*
X9399D01*
Y32416D01*
X9732Y31750D02*
X10232D01*
X10398Y31917D01*
X10232Y32083D01*
X9898D01*
X9732Y32250D01*
X9898Y32416D01*
X10398D01*
X10731Y31750D02*
Y31917D01*
X10898D01*
Y31750D01*
X10731D01*
X12231Y32583D02*
X12064Y32750D01*
X11731D01*
X11565Y32583D01*
Y31917D01*
X11731Y31750D01*
X12064D01*
X12231Y31917D01*
Y32250D01*
X11898D01*
X12564Y32750D02*
X13231D01*
X12897D01*
Y31750D01*
X13564Y32750D02*
Y31750D01*
X14230D01*
D59*
X20400Y15600D02*
D03*
X11450Y4550D02*
D03*
X14725Y1275D02*
D03*
X15750Y2350D02*
D03*
X25400Y20450D02*
D03*
X20925Y22025D02*
D03*
X22175Y22325D02*
D03*
D60*
X20140Y1500D02*
D03*
D61*
X17600D02*
D03*
D62*
X45250Y9725D02*
D03*
X30250Y7725D02*
D03*
X25900Y21725D02*
D03*
X27450Y23775D02*
D03*
X12185Y29175D02*
D03*
X7095D02*
D03*
X9635D02*
D03*
X40125Y23785D02*
D03*
X37580Y23790D02*
D03*
X57905Y23785D02*
D03*
X55360Y23790D02*
D03*
X24885Y29225D02*
D03*
X22340Y29230D02*
D03*
X14725Y29225D02*
D03*
X45575Y16400D02*
D03*
Y17425D02*
D03*
X18400Y14525D02*
D03*
X19700Y16825D02*
D03*
X17275Y25200D02*
D03*
X19775D02*
D03*
X9650Y24175D02*
D03*
X29950Y29175D02*
D03*
X32500D02*
D03*
X42650D02*
D03*
X45200D02*
D03*
X47750D02*
D03*
X50275D02*
D03*
D63*
X60600Y22050D02*
D03*
X63500Y11400D02*
D03*
X21275Y14175D02*
D03*
X24600Y15825D02*
D03*
Y12875D02*
D03*
X27450Y27740D02*
D03*
X27475Y29700D02*
D03*
X20200Y14375D02*
D03*
X36725Y17675D02*
D03*
X11325Y21700D02*
D03*
X8975Y19600D02*
D03*
X13663Y9212D02*
D03*
X40325Y17925D02*
D03*
X49975Y22025D02*
D03*
X53175Y25825D02*
D03*
X45000Y27900D02*
D03*
X52625Y27025D02*
D03*
X52850Y18825D02*
D03*
X60025Y11575D02*
D03*
X47800Y20100D02*
D03*
X57075Y19900D02*
D03*
X56000Y17900D02*
D03*
X59300Y11575D02*
D03*
X58575D02*
D03*
X57750Y13175D02*
D03*
X52850Y18000D02*
D03*
X47800Y20900D02*
D03*
X48750Y22450D02*
D03*
X45800Y20900D02*
D03*
X57075Y19075D02*
D03*
X57050Y18300D02*
D03*
X53600Y19575D02*
D03*
X6150Y21500D02*
D03*
X7000Y20850D02*
D03*
X2525Y16250D02*
D03*
X23550Y10700D02*
D03*
X23425Y7400D02*
D03*
X21700Y6400D02*
D03*
X16175Y5400D02*
D03*
X24130Y22125D02*
D03*
X23250D02*
D03*
X20500Y19125D02*
D03*
X19625Y20875D02*
D03*
X33900Y21700D02*
D03*
X9975Y19825D02*
D03*
X53200Y16700D02*
D03*
X55750Y15000D02*
D03*
X55000Y14250D02*
D03*
X56500Y14250D02*
D03*
X56500Y15750D02*
D03*
X55000Y15750D02*
D03*
X59625Y16025D02*
D03*
Y17025D02*
D03*
Y18025D02*
D03*
X58850Y17025D02*
D03*
X45800Y20100D02*
D03*
X45575Y12100D02*
D03*
Y12850D02*
D03*
Y13600D02*
D03*
X59625Y20025D02*
D03*
Y19025D02*
D03*
X59825Y13325D02*
D03*
X64300Y6050D02*
D03*
X64000Y24525D02*
D03*
X14075Y8175D02*
D03*
X20500Y8750D02*
D03*
X18050Y4550D02*
D03*
X18400Y11075D02*
D03*
X13750Y14400D02*
D03*
X21500Y17300D02*
D03*
X22750Y16775D02*
D03*
X10175Y3850D02*
D03*
X25450Y8250D02*
D03*
X35300Y27800D02*
D03*
X32175Y22375D02*
D03*
X31550Y21550D02*
D03*
X30625Y19400D02*
D03*
X31625D02*
D03*
X47725Y23775D02*
D03*
X64300Y18475D02*
D03*
X19025Y21575D02*
D03*
X17050Y22150D02*
D03*
X52600Y17250D02*
D03*
X57725Y17400D02*
D03*
X61900Y17500D02*
D03*
X64425Y11125D02*
D03*
X58500Y29750D02*
D03*
X48825Y21275D02*
D03*
X12625Y3925D02*
D03*
X58375Y19300D02*
D03*
X57775Y18650D02*
D03*
X50850Y21000D02*
D03*
X14875Y21450D02*
D03*
Y22925D02*
D03*
X17400Y20225D02*
D03*
X22375Y14950D02*
D03*
X24750Y18500D02*
D03*
Y19650D02*
D03*
X12450Y21125D02*
D03*
X7175Y23275D02*
D03*
X975Y22175D02*
D03*
Y23025D02*
D03*
Y23875D02*
D03*
X925Y17150D02*
D03*
X8950Y18150D02*
D03*
X53020Y12750D02*
D03*
X53220Y9925D02*
D03*
X54045Y9100D02*
D03*
X54045Y10750D02*
D03*
X53570Y6950D02*
D03*
X53570Y5300D02*
D03*
X52745Y6125D02*
D03*
X57155Y6225D02*
D03*
X57155Y7875D02*
D03*
X57980Y7050D02*
D03*
X56865Y9100D02*
D03*
X56865Y10750D02*
D03*
X57690Y9925D02*
D03*
X22350Y23350D02*
D03*
X38350Y22250D02*
D03*
X40125Y21675D02*
D03*
X40150Y26950D02*
D03*
Y28300D02*
D03*
X30200Y27675D02*
D03*
X13376Y2251D02*
D03*
X6950Y4900D02*
D03*
X30200Y20800D02*
D03*
X34500Y20000D02*
D03*
X38500Y20500D02*
D03*
X37500Y20000D02*
D03*
X35025Y25225D02*
D03*
X29975D02*
D03*
X35025Y22725D02*
D03*
X29975D02*
D03*
X47725Y25225D02*
D03*
X22325D02*
D03*
X18000Y6500D02*
D03*
Y7900D02*
D03*
X20300Y10100D02*
D03*
X16000Y8500D02*
D03*
X17500Y9500D02*
D03*
X25700Y12200D02*
D03*
X25600Y17200D02*
D03*
X14600Y20200D02*
D03*
X63850Y15200D02*
D03*
Y13700D02*
D03*
X10500Y18900D02*
D03*
X13750Y18250D02*
D03*
X37550Y27775D02*
D03*
X42650D02*
D03*
X47725D02*
D03*
X50250D02*
D03*
X12150Y25225D02*
D03*
Y26475D02*
D03*
X14650D02*
D03*
X14700Y27775D02*
D03*
X17250D02*
D03*
X19775D02*
D03*
X25100Y25900D02*
D03*
X52200Y11725D02*
D03*
M02*
