G04 Layer_Color=15269887*
%FSLAX43Y43*%
%MOMM*%
G71*
G01*
G75*
%ADD50C,0.200*%
%ADD55C,0.500*%
%ADD58C,0.125*%
G36*
X6748Y22824D02*
Y22810D01*
X6749Y22797D01*
X6750Y22787D01*
X6751Y22779D01*
X6753Y22772D01*
X6754Y22768D01*
X6754Y22765D01*
X6755Y22764D01*
X6758Y22757D01*
X6761Y22752D01*
X6765Y22747D01*
X6769Y22742D01*
X6773Y22739D01*
X6776Y22736D01*
X6778Y22735D01*
X6779Y22734D01*
X6786Y22731D01*
X6793Y22728D01*
X6799Y22726D01*
X6806Y22725D01*
X6811Y22724D01*
X6816Y22724D01*
X6820D01*
X6831Y22724D01*
X6842Y22727D01*
X6851Y22730D01*
X6858Y22734D01*
X6864Y22737D01*
X6868Y22741D01*
X6871Y22743D01*
X6871Y22744D01*
X6874Y22748D01*
X6878Y22752D01*
X6882Y22764D01*
X6886Y22776D01*
X6888Y22789D01*
X6889Y22801D01*
X6890Y22806D01*
X6891Y22810D01*
X6891Y22814D01*
Y22816D01*
Y22818D01*
Y22819D01*
X6949Y22811D01*
Y22797D01*
X6948Y22786D01*
X6946Y22774D01*
X6944Y22764D01*
X6942Y22754D01*
X6939Y22746D01*
X6936Y22737D01*
X6934Y22730D01*
X6931Y22724D01*
X6927Y22718D01*
X6924Y22714D01*
X6922Y22710D01*
X6920Y22707D01*
X6918Y22705D01*
X6918Y22704D01*
X6917Y22703D01*
X6910Y22697D01*
X6903Y22691D01*
X6896Y22686D01*
X6888Y22682D01*
X6879Y22679D01*
X6871Y22676D01*
X6856Y22671D01*
X6849Y22670D01*
X6842Y22669D01*
X6836Y22668D01*
X6831Y22667D01*
X6826Y22667D01*
X6820D01*
X6804Y22667D01*
X6790Y22669D01*
X6778Y22673D01*
X6767Y22676D01*
X6758Y22678D01*
X6751Y22681D01*
X6749Y22682D01*
X6747Y22683D01*
X6746Y22684D01*
X6746D01*
X6734Y22691D01*
X6725Y22699D01*
X6717Y22707D01*
X6711Y22716D01*
X6706Y22723D01*
X6702Y22729D01*
X6701Y22731D01*
X6700Y22733D01*
X6699Y22734D01*
Y22734D01*
X6697Y22741D01*
X6694Y22748D01*
X6691Y22763D01*
X6688Y22779D01*
X6686Y22794D01*
X6686Y22801D01*
X6685Y22807D01*
Y22813D01*
X6684Y22818D01*
Y22822D01*
Y22826D01*
Y22827D01*
Y22828D01*
Y23156D01*
X6748D01*
Y22824D01*
D02*
G37*
G36*
X6465Y23157D02*
X6475Y23156D01*
X6494Y23152D01*
X6510Y23147D01*
X6517Y23144D01*
X6524Y23141D01*
X6529Y23138D01*
X6535Y23135D01*
X6539Y23132D01*
X6543Y23129D01*
X6546Y23127D01*
X6548Y23126D01*
X6549Y23125D01*
X6550Y23124D01*
X6557Y23118D01*
X6563Y23111D01*
X6574Y23096D01*
X6582Y23081D01*
X6589Y23067D01*
X6591Y23060D01*
X6593Y23054D01*
X6595Y23047D01*
X6596Y23043D01*
X6598Y23039D01*
X6598Y23036D01*
X6599Y23034D01*
Y23033D01*
X6540Y23022D01*
X6537Y23037D01*
X6533Y23051D01*
X6528Y23062D01*
X6523Y23071D01*
X6519Y23078D01*
X6515Y23083D01*
X6513Y23086D01*
X6511Y23087D01*
X6502Y23094D01*
X6493Y23099D01*
X6483Y23103D01*
X6474Y23106D01*
X6466Y23107D01*
X6459Y23108D01*
X6456Y23109D01*
X6453D01*
X6441Y23108D01*
X6430Y23106D01*
X6420Y23102D01*
X6412Y23098D01*
X6406Y23094D01*
X6401Y23091D01*
X6398Y23088D01*
X6397Y23087D01*
X6390Y23079D01*
X6384Y23069D01*
X6380Y23061D01*
X6377Y23052D01*
X6376Y23045D01*
X6375Y23039D01*
X6375Y23035D01*
Y23034D01*
Y23034D01*
X6375Y23026D01*
X6376Y23019D01*
X6380Y23007D01*
X6384Y22996D01*
X6390Y22987D01*
X6395Y22981D01*
X6400Y22976D01*
X6404Y22974D01*
X6405Y22972D01*
X6405D01*
X6416Y22966D01*
X6428Y22961D01*
X6439Y22958D01*
X6450Y22956D01*
X6459Y22954D01*
X6466Y22954D01*
X6469Y22953D01*
X6476D01*
X6479Y22954D01*
X6481Y22954D01*
X6482D01*
X6489Y22902D01*
X6480Y22904D01*
X6472Y22906D01*
X6464Y22907D01*
X6458Y22908D01*
X6454Y22909D01*
X6447D01*
X6432Y22907D01*
X6419Y22904D01*
X6408Y22901D01*
X6398Y22896D01*
X6390Y22891D01*
X6385Y22887D01*
X6381Y22884D01*
X6380Y22882D01*
X6375Y22877D01*
X6371Y22872D01*
X6364Y22861D01*
X6359Y22850D01*
X6356Y22839D01*
X6354Y22830D01*
X6353Y22826D01*
Y22822D01*
X6353Y22819D01*
Y22817D01*
Y22816D01*
Y22816D01*
Y22808D01*
X6354Y22801D01*
X6357Y22787D01*
X6362Y22774D01*
X6367Y22764D01*
X6372Y22756D01*
X6377Y22749D01*
X6379Y22747D01*
X6380Y22746D01*
X6381Y22745D01*
X6381Y22744D01*
X6387Y22739D01*
X6393Y22735D01*
X6405Y22727D01*
X6416Y22722D01*
X6428Y22719D01*
X6437Y22717D01*
X6441Y22716D01*
X6445D01*
X6448Y22716D01*
X6452D01*
X6464Y22717D01*
X6476Y22719D01*
X6486Y22722D01*
X6495Y22727D01*
X6503Y22731D01*
X6508Y22734D01*
X6511Y22737D01*
X6512Y22737D01*
X6516Y22742D01*
X6520Y22747D01*
X6527Y22759D01*
X6533Y22771D01*
X6538Y22782D01*
X6541Y22794D01*
X6543Y22798D01*
X6544Y22802D01*
X6544Y22806D01*
X6545Y22808D01*
X6546Y22810D01*
Y22811D01*
X6604Y22802D01*
X6603Y22791D01*
X6601Y22781D01*
X6598Y22771D01*
X6594Y22762D01*
X6591Y22753D01*
X6587Y22745D01*
X6583Y22737D01*
X6579Y22731D01*
X6574Y22725D01*
X6571Y22719D01*
X6567Y22715D01*
X6564Y22711D01*
X6561Y22708D01*
X6559Y22706D01*
X6558Y22705D01*
X6557Y22704D01*
X6549Y22697D01*
X6541Y22692D01*
X6532Y22687D01*
X6523Y22682D01*
X6514Y22679D01*
X6505Y22676D01*
X6489Y22672D01*
X6481Y22670D01*
X6474Y22669D01*
X6468Y22668D01*
X6463Y22667D01*
X6458Y22667D01*
X6452D01*
X6439Y22667D01*
X6427Y22669D01*
X6415Y22671D01*
X6405Y22674D01*
X6394Y22677D01*
X6385Y22681D01*
X6376Y22684D01*
X6368Y22689D01*
X6361Y22692D01*
X6355Y22696D01*
X6349Y22700D01*
X6345Y22703D01*
X6341Y22706D01*
X6338Y22708D01*
X6337Y22709D01*
X6336Y22710D01*
X6328Y22718D01*
X6321Y22727D01*
X6315Y22736D01*
X6310Y22745D01*
X6305Y22754D01*
X6301Y22763D01*
X6298Y22772D01*
X6296Y22780D01*
X6294Y22787D01*
X6293Y22794D01*
X6291Y22801D01*
X6291Y22806D01*
X6290Y22811D01*
Y22814D01*
Y22816D01*
Y22817D01*
X6291Y22834D01*
X6294Y22848D01*
X6298Y22861D01*
X6302Y22872D01*
X6306Y22882D01*
X6308Y22885D01*
X6310Y22888D01*
X6311Y22891D01*
X6313Y22892D01*
X6314Y22893D01*
Y22894D01*
X6323Y22904D01*
X6335Y22913D01*
X6345Y22921D01*
X6356Y22926D01*
X6365Y22930D01*
X6370Y22932D01*
X6373Y22933D01*
X6376Y22934D01*
X6378Y22934D01*
X6380Y22935D01*
X6380D01*
X6369Y22941D01*
X6359Y22947D01*
X6350Y22954D01*
X6343Y22961D01*
X6338Y22967D01*
X6334Y22971D01*
X6331Y22974D01*
X6331Y22976D01*
X6325Y22986D01*
X6321Y22996D01*
X6318Y23005D01*
X6316Y23014D01*
X6315Y23021D01*
X6314Y23027D01*
Y23031D01*
Y23032D01*
Y23032D01*
X6315Y23044D01*
X6316Y23056D01*
X6320Y23066D01*
X6323Y23076D01*
X6326Y23083D01*
X6329Y23089D01*
X6331Y23093D01*
X6332Y23094D01*
Y23094D01*
X6339Y23105D01*
X6347Y23114D01*
X6356Y23122D01*
X6364Y23129D01*
X6371Y23134D01*
X6377Y23137D01*
X6380Y23139D01*
X6381Y23140D01*
X6382Y23140D01*
X6383D01*
X6395Y23146D01*
X6408Y23150D01*
X6420Y23153D01*
X6431Y23156D01*
X6440Y23157D01*
X6444D01*
X6448Y23157D01*
X6455D01*
X6465Y23157D01*
D02*
G37*
D50*
X57900Y24023D02*
Y28976D01*
X7100D02*
X57900D01*
X7100Y24023D02*
X57900D01*
X7100D02*
Y28976D01*
D55*
X8620Y23180D02*
G03*
X8620Y23180I-250J0D01*
G01*
D58*
X4900Y32750D02*
Y31750D01*
X5233Y32083D01*
X5566Y31750D01*
Y32750D01*
X6066Y32416D02*
X6400D01*
X6566Y32250D01*
Y31750D01*
X6066D01*
X5900Y31917D01*
X6066Y32083D01*
X6566D01*
X6899Y31750D02*
X7233D01*
X7066D01*
Y32750D01*
X6899D01*
X7732Y32416D02*
Y31750D01*
Y32083D01*
X7899Y32250D01*
X8066Y32416D01*
X8232D01*
X8732D02*
Y31917D01*
X8899Y31750D01*
X9399D01*
Y32416D01*
X9732Y31750D02*
X10232D01*
X10398Y31917D01*
X10232Y32083D01*
X9898D01*
X9732Y32250D01*
X9898Y32416D01*
X10398D01*
X10731Y31750D02*
Y31917D01*
X10898D01*
Y31750D01*
X10731D01*
X12231Y32583D02*
X12064Y32750D01*
X11731D01*
X11565Y32583D01*
Y31917D01*
X11731Y31750D01*
X12064D01*
X12231Y31917D01*
Y32250D01*
X11898D01*
X12564Y32750D02*
Y31750D01*
X13064D01*
X13231Y31917D01*
Y32083D01*
X13064Y32250D01*
X12564D01*
X13064D01*
X13231Y32416D01*
Y32583D01*
X13064Y32750D01*
X12564D01*
X14064D02*
X13730D01*
X13564Y32583D01*
Y31917D01*
X13730Y31750D01*
X14064D01*
X14230Y31917D01*
Y32583D01*
X14064Y32750D01*
M02*
