G04 Layer_Color=12517567*
%FSLAX43Y43*%
%MOMM*%
G71*
G01*
G75*
%ADD58C,0.125*%
%ADD62C,0.800*%
%ADD63C,0.635*%
%ADD66R,0.450X0.950*%
%ADD67R,0.950X0.450*%
%ADD68R,2.550X2.550*%
%ADD69R,1.925X1.925*%
%ADD70R,0.925X0.425*%
%ADD71R,0.425X0.925*%
%ADD72R,3.550X1.650*%
%ADD73R,3.650X1.150*%
%ADD74R,0.700X1.850*%
%ADD75R,1.150X1.050*%
%ADD76R,0.750X0.650*%
%ADD77R,0.750X0.750*%
%ADD78R,0.675X0.660*%
%ADD79R,1.050X1.150*%
%ADD80R,0.650X0.750*%
%ADD81R,0.750X1.050*%
%ADD82R,0.600X0.470*%
%ADD83R,0.470X0.600*%
%ADD84R,0.660X0.675*%
%ADD85R,0.700X1.000*%
%ADD86R,0.750X0.750*%
%ADD87R,0.705X0.425*%
%ADD88R,0.475X0.755*%
%ADD89R,0.550X0.650*%
%ADD90R,0.650X0.550*%
%ADD91R,1.500X1.700*%
%ADD92R,0.750X0.400*%
%ADD93R,0.422X0.550*%
%ADD94R,0.550X0.422*%
%ADD95R,0.600X1.050*%
%ADD96R,3.150X1.350*%
%ADD97R,0.690X0.650*%
%ADD98R,1.050X0.950*%
%ADD99R,0.650X0.690*%
%ADD100R,1.150X1.200*%
%ADD101R,1.200X2.350*%
%ADD102C,1.550*%
%ADD103R,1.350X1.950*%
%ADD104R,1.050X0.850*%
%ADD105C,2.950*%
%ADD106C,1.150*%
%ADD107C,1.650*%
%ADD108R,1.650X1.650*%
%ADD109C,1.980*%
%ADD110C,1.170*%
G36*
X21225Y18287D02*
X21040D01*
X21040Y18712D01*
X21225D01*
X21225Y18287D01*
D02*
G37*
G36*
X24460Y17788D02*
X24275D01*
X24275Y18212D01*
X24460D01*
X24460Y17788D01*
D02*
G37*
G36*
X21225Y18787D02*
X21040D01*
X21040Y19212D01*
X21225D01*
X21225Y18787D01*
D02*
G37*
G36*
X24460Y18288D02*
X24275D01*
X24275Y18712D01*
X24460D01*
X24460Y18288D01*
D02*
G37*
G36*
X22962Y17290D02*
X22538Y17290D01*
Y17475D01*
X22962D01*
Y17290D01*
D02*
G37*
G36*
X22462D02*
X22038Y17290D01*
X22038Y17475D01*
X22462Y17475D01*
Y17290D01*
D02*
G37*
G36*
X21225Y17787D02*
X21040Y17787D01*
X21040Y18212D01*
X21225Y18212D01*
Y17787D01*
D02*
G37*
G36*
X23462Y17290D02*
X23038Y17290D01*
Y17475D01*
X23462D01*
Y17290D01*
D02*
G37*
G36*
X22462Y20710D02*
Y20525D01*
X22038Y20525D01*
X22038Y20710D01*
X22462Y20710D01*
D02*
G37*
G36*
X24460Y20212D02*
X24460Y19787D01*
X24275Y19788D01*
X24275Y20212D01*
X24460Y20212D01*
D02*
G37*
G36*
X23462Y20710D02*
Y20525D01*
X23038Y20525D01*
X23038Y20710D01*
X23462Y20710D01*
D02*
G37*
G36*
X22962D02*
Y20525D01*
X22538Y20525D01*
X22538Y20710D01*
X22962Y20710D01*
D02*
G37*
G36*
X21225Y19287D02*
X21040D01*
X21040Y19712D01*
X21225D01*
X21225Y19287D01*
D02*
G37*
G36*
X24460Y18788D02*
X24275D01*
X24275Y19212D01*
X24460D01*
X24460Y18788D01*
D02*
G37*
G36*
X21225Y19787D02*
X21040D01*
X21040Y20212D01*
X21225D01*
X21225Y19787D01*
D02*
G37*
G36*
X24460Y19288D02*
X24275D01*
X24275Y19712D01*
X24460D01*
X24460Y19288D01*
D02*
G37*
D58*
X4900Y32750D02*
Y31750D01*
X5233Y32083D01*
X5566Y31750D01*
Y32750D01*
X6066Y32416D02*
X6400D01*
X6566Y32250D01*
Y31750D01*
X6066D01*
X5900Y31917D01*
X6066Y32083D01*
X6566D01*
X6899Y31750D02*
X7233D01*
X7066D01*
Y32750D01*
X6899D01*
X7732Y32416D02*
Y31750D01*
Y32083D01*
X7899Y32250D01*
X8066Y32416D01*
X8232D01*
X8732D02*
Y31917D01*
X8899Y31750D01*
X9399D01*
Y32416D01*
X9732Y31750D02*
X10232D01*
X10398Y31917D01*
X10232Y32083D01*
X9898D01*
X9732Y32250D01*
X9898Y32416D01*
X10398D01*
X10731Y31750D02*
Y31917D01*
X10898D01*
Y31750D01*
X10731D01*
X12231Y32583D02*
X12064Y32750D01*
X11731D01*
X11565Y32583D01*
Y31917D01*
X11731Y31750D01*
X12064D01*
X12231Y31917D01*
Y32250D01*
X11898D01*
X12564Y32750D02*
X13231D01*
X12897D01*
Y31750D01*
X14230Y32583D02*
X14064Y32750D01*
X13730D01*
X13564Y32583D01*
Y32416D01*
X13730Y32250D01*
X14064D01*
X14230Y32083D01*
Y31917D01*
X14064Y31750D01*
X13730D01*
X13564Y31917D01*
D62*
X45250Y9725D02*
D03*
X30250Y7725D02*
D03*
X25900Y21725D02*
D03*
X27450Y23775D02*
D03*
X12185Y29175D02*
D03*
X7095D02*
D03*
X9635D02*
D03*
X40125Y23785D02*
D03*
X37580Y23790D02*
D03*
X57905Y23785D02*
D03*
X55360Y23790D02*
D03*
X24885Y29225D02*
D03*
X22340Y29230D02*
D03*
X14725Y29225D02*
D03*
X45575Y16400D02*
D03*
Y17425D02*
D03*
X18400Y14525D02*
D03*
X19700Y16825D02*
D03*
X17275Y25200D02*
D03*
X19775D02*
D03*
X9650Y24175D02*
D03*
X29950Y29175D02*
D03*
X32500D02*
D03*
X42650D02*
D03*
X45200D02*
D03*
X47750D02*
D03*
X50275D02*
D03*
D63*
X60600Y22050D02*
D03*
X63500Y11400D02*
D03*
X21275Y14175D02*
D03*
X24600Y15825D02*
D03*
Y12875D02*
D03*
X27450Y27740D02*
D03*
X27475Y29700D02*
D03*
X20200Y14375D02*
D03*
X36725Y17675D02*
D03*
X11325Y21700D02*
D03*
X8975Y19600D02*
D03*
X13663Y9212D02*
D03*
X40325Y17925D02*
D03*
X49975Y22025D02*
D03*
X53175Y25825D02*
D03*
X45000Y27900D02*
D03*
X52625Y27025D02*
D03*
X52850Y18825D02*
D03*
X60025Y11575D02*
D03*
X47800Y20100D02*
D03*
X57075Y19900D02*
D03*
X56000Y17900D02*
D03*
X59300Y11575D02*
D03*
X58575D02*
D03*
X57750Y13175D02*
D03*
X52850Y18000D02*
D03*
X47800Y20900D02*
D03*
X48750Y22450D02*
D03*
X45800Y20900D02*
D03*
X57075Y19075D02*
D03*
X57050Y18300D02*
D03*
X53600Y19575D02*
D03*
X6150Y21500D02*
D03*
X7000Y20850D02*
D03*
X2525Y16250D02*
D03*
X23550Y10700D02*
D03*
X23425Y7400D02*
D03*
X21700Y6400D02*
D03*
X16175Y5400D02*
D03*
X24130Y22125D02*
D03*
X23250D02*
D03*
X20500Y19125D02*
D03*
X19625Y20875D02*
D03*
X33900Y21700D02*
D03*
X9975Y19825D02*
D03*
X53200Y16700D02*
D03*
X55750Y15000D02*
D03*
X55000Y14250D02*
D03*
X56500Y14250D02*
D03*
X56500Y15750D02*
D03*
X55000Y15750D02*
D03*
X59625Y16025D02*
D03*
Y17025D02*
D03*
Y18025D02*
D03*
X58850Y17025D02*
D03*
X45800Y20100D02*
D03*
X45575Y12100D02*
D03*
Y12850D02*
D03*
Y13600D02*
D03*
X59625Y20025D02*
D03*
Y19025D02*
D03*
X59825Y13325D02*
D03*
X64300Y6050D02*
D03*
X64000Y24525D02*
D03*
X14075Y8175D02*
D03*
X20500Y8750D02*
D03*
X18050Y4550D02*
D03*
X18400Y11075D02*
D03*
X13750Y14400D02*
D03*
X21500Y17300D02*
D03*
X22750Y16775D02*
D03*
X10175Y3850D02*
D03*
X25450Y8250D02*
D03*
X35300Y27800D02*
D03*
X32175Y22375D02*
D03*
X31550Y21550D02*
D03*
X30625Y19400D02*
D03*
X31625D02*
D03*
X47725Y23775D02*
D03*
X64300Y18475D02*
D03*
X19025Y21575D02*
D03*
X17050Y22150D02*
D03*
X52600Y17250D02*
D03*
X57725Y17400D02*
D03*
X61900Y17500D02*
D03*
X64425Y11125D02*
D03*
X58500Y29750D02*
D03*
X48825Y21275D02*
D03*
X12625Y3925D02*
D03*
X58375Y19300D02*
D03*
X57775Y18650D02*
D03*
X50850Y21000D02*
D03*
X14875Y21450D02*
D03*
Y22925D02*
D03*
X17400Y20225D02*
D03*
X22375Y14950D02*
D03*
X24750Y18500D02*
D03*
Y19650D02*
D03*
X12450Y21125D02*
D03*
X7175Y23275D02*
D03*
X975Y22175D02*
D03*
Y23025D02*
D03*
Y23875D02*
D03*
X925Y17150D02*
D03*
X8950Y18150D02*
D03*
X53020Y12750D02*
D03*
X53220Y9925D02*
D03*
X54045Y9100D02*
D03*
X54045Y10750D02*
D03*
X53570Y6950D02*
D03*
X53570Y5300D02*
D03*
X52745Y6125D02*
D03*
X57155Y6225D02*
D03*
X57155Y7875D02*
D03*
X57980Y7050D02*
D03*
X56865Y9100D02*
D03*
X56865Y10750D02*
D03*
X57690Y9925D02*
D03*
X22350Y23350D02*
D03*
X38350Y22250D02*
D03*
X40125Y21675D02*
D03*
X40150Y26950D02*
D03*
Y28300D02*
D03*
X30200Y27675D02*
D03*
X13376Y2251D02*
D03*
X6950Y4900D02*
D03*
X30200Y20800D02*
D03*
X34500Y20000D02*
D03*
X38500Y20500D02*
D03*
X37500Y20000D02*
D03*
X35025Y25225D02*
D03*
X29975D02*
D03*
X35025Y22725D02*
D03*
X29975D02*
D03*
X47725Y25225D02*
D03*
X22325D02*
D03*
X18000Y6500D02*
D03*
Y7900D02*
D03*
X20300Y10100D02*
D03*
X16000Y8500D02*
D03*
X17500Y9500D02*
D03*
X25700Y12200D02*
D03*
X25600Y17200D02*
D03*
X14600Y20200D02*
D03*
X63850Y15200D02*
D03*
Y13700D02*
D03*
X10500Y18900D02*
D03*
X13750Y18250D02*
D03*
X37550Y27775D02*
D03*
X42650D02*
D03*
X47725D02*
D03*
X50250D02*
D03*
X12150Y25225D02*
D03*
Y26475D02*
D03*
X14650D02*
D03*
X14700Y27775D02*
D03*
X17250D02*
D03*
X19775D02*
D03*
X25100Y25900D02*
D03*
X52200Y11725D02*
D03*
D66*
X56750Y17000D02*
D03*
X56250D02*
D03*
X55750D02*
D03*
X55250D02*
D03*
X54750D02*
D03*
Y13000D02*
D03*
X55250D02*
D03*
X55750D02*
D03*
X56250D02*
D03*
X56750D02*
D03*
D67*
X53750Y16000D02*
D03*
Y15500D02*
D03*
Y15000D02*
D03*
Y14500D02*
D03*
Y14000D02*
D03*
X57750D02*
D03*
Y14500D02*
D03*
Y15000D02*
D03*
Y15500D02*
D03*
Y16000D02*
D03*
D68*
X55750Y15000D02*
D03*
D69*
X4550Y20000D02*
D03*
D70*
X3050Y19250D02*
D03*
Y19750D02*
D03*
X6050Y19750D02*
D03*
Y19250D02*
D03*
Y20250D02*
D03*
Y20750D02*
D03*
X3050D02*
D03*
X3050Y20250D02*
D03*
D71*
X3800Y18500D02*
D03*
X4300D02*
D03*
X4800D02*
D03*
X5300D02*
D03*
Y21500D02*
D03*
X4800Y21500D02*
D03*
X4300D02*
D03*
X3800D02*
D03*
D72*
X5250Y14750D02*
D03*
X5250Y8250D02*
D03*
D73*
X11000Y10500D02*
D03*
Y12500D02*
D03*
D74*
X61825Y14450D02*
D03*
D75*
X62450Y12400D02*
D03*
X64050D02*
D03*
Y16500D02*
D03*
X62450D02*
D03*
D76*
X975Y21325D02*
D03*
X1975D02*
D03*
D77*
Y20525D02*
D03*
X975D02*
D03*
X1975Y19675D02*
D03*
X975D02*
D03*
X925Y18000D02*
D03*
X1925D02*
D03*
X2525Y17100D02*
D03*
X3525D02*
D03*
X7100Y18600D02*
D03*
X8100D02*
D03*
X7100Y17700D02*
D03*
X8100D02*
D03*
X8100Y19600D02*
D03*
X7100D02*
D03*
X14400Y17425D02*
D03*
X13400D02*
D03*
Y16525D02*
D03*
X14400D02*
D03*
X16475Y15625D02*
D03*
X15475D02*
D03*
X21700Y10700D02*
D03*
X22700D02*
D03*
X10175Y3000D02*
D03*
X11175D02*
D03*
X23600Y16700D02*
D03*
X24600D02*
D03*
X47800Y22425D02*
D03*
X46800D02*
D03*
X58850Y14325D02*
D03*
X59850Y14325D02*
D03*
X63300Y10350D02*
D03*
X64300D02*
D03*
X63300Y6850D02*
D03*
X64300D02*
D03*
X63300Y17625D02*
D03*
X64300D02*
D03*
X56125Y23025D02*
D03*
X57125Y23025D02*
D03*
D78*
X1855Y18825D02*
D03*
X975Y18825D02*
D03*
X18125Y15625D02*
D03*
X19005D02*
D03*
X16175Y4550D02*
D03*
X17055D02*
D03*
X21700Y7400D02*
D03*
X22580Y7400D02*
D03*
X23250Y21275D02*
D03*
X24130D02*
D03*
X53595Y18825D02*
D03*
X54475Y18825D02*
D03*
Y18000D02*
D03*
X53595D02*
D03*
X56300Y19500D02*
D03*
X55420D02*
D03*
Y18650D02*
D03*
X56300D02*
D03*
X57705Y11800D02*
D03*
X56825D02*
D03*
X57155Y7050D02*
D03*
X56275D02*
D03*
X54045Y9925D02*
D03*
X54925D02*
D03*
X53020Y11925D02*
D03*
X53900D02*
D03*
X51845Y14375D02*
D03*
X52725D02*
D03*
X53570Y6125D02*
D03*
X54450Y6125D02*
D03*
D79*
X9800Y21100D02*
D03*
X8100D02*
D03*
D80*
X6375Y23475D02*
D03*
Y22475D02*
D03*
X13750Y13500D02*
D03*
X13750Y12500D02*
D03*
X45575Y14425D02*
D03*
Y15425D02*
D03*
D81*
X11325Y20175D02*
D03*
X12275D02*
D03*
X13225D02*
D03*
X13225Y22675D02*
D03*
X11325Y22675D02*
D03*
D82*
X12825Y18875D02*
D03*
X11325Y18875D02*
D03*
X12450Y17430D02*
D03*
X10950D02*
D03*
X13750Y11000D02*
D03*
X15250D02*
D03*
X60100Y22975D02*
D03*
X61600D02*
D03*
D83*
X15475Y17600D02*
D03*
Y19100D02*
D03*
X16450Y11000D02*
D03*
Y9500D02*
D03*
X61250Y19600D02*
D03*
Y18100D02*
D03*
X59200Y21775D02*
D03*
Y23275D02*
D03*
D84*
X17325Y15625D02*
D03*
Y14745D02*
D03*
X16450Y12075D02*
D03*
Y12955D02*
D03*
X20500Y20000D02*
D03*
Y20880D02*
D03*
X18200Y20425D02*
D03*
X18200Y21305D02*
D03*
X58850Y16030D02*
D03*
X58850Y15150D02*
D03*
X58750Y13305D02*
D03*
X58750Y12425D02*
D03*
X55975Y11800D02*
D03*
X55975Y10920D02*
D03*
X56025Y8975D02*
D03*
X56025Y8095D02*
D03*
X55025Y11800D02*
D03*
Y10920D02*
D03*
X51850Y13500D02*
D03*
Y12620D02*
D03*
Y15675D02*
D03*
Y16555D02*
D03*
D85*
X20200Y12075D02*
D03*
X19300D02*
D03*
X18400D02*
D03*
X17500D02*
D03*
X17500Y13275D02*
D03*
X18400Y13275D02*
D03*
X19300Y13275D02*
D03*
X20200Y13275D02*
D03*
D86*
X14075Y6275D02*
D03*
Y7275D02*
D03*
X17100Y6400D02*
D03*
Y5400D02*
D03*
X10175Y4725D02*
D03*
X10175Y5725D02*
D03*
X8600Y2175D02*
D03*
Y1175D02*
D03*
X12275Y3000D02*
D03*
Y2000D02*
D03*
X19500Y8750D02*
D03*
Y7750D02*
D03*
X20500Y7875D02*
D03*
Y6875D02*
D03*
X62800Y19500D02*
D03*
Y18500D02*
D03*
Y22425D02*
D03*
Y23425D02*
D03*
D87*
X14720Y3550D02*
D03*
X13450Y5050D02*
D03*
Y4550D02*
D03*
Y4050D02*
D03*
Y3550D02*
D03*
X14720Y4050D02*
D03*
Y4550D02*
D03*
Y5050D02*
D03*
D88*
X14085Y3440D02*
D03*
Y5160D02*
D03*
D89*
X9100Y5425D02*
D03*
X8100D02*
D03*
X8600Y4125D02*
D03*
D90*
X9800Y2175D02*
D03*
Y1175D02*
D03*
X11100Y1675D02*
D03*
X61250Y21350D02*
D03*
Y20350D02*
D03*
X62550Y20850D02*
D03*
D91*
X23150Y9000D02*
D03*
D92*
X21700Y9250D02*
D03*
X21700Y8750D02*
D03*
Y8250D02*
D03*
X24600D02*
D03*
X24600Y8750D02*
D03*
Y9250D02*
D03*
Y9750D02*
D03*
X21700Y9750D02*
D03*
D93*
X23250Y20250D02*
D03*
Y17750D02*
D03*
X22750D02*
D03*
X22250D02*
D03*
X22750Y20250D02*
D03*
X22250D02*
D03*
D94*
X24000Y20000D02*
D03*
X24000Y19500D02*
D03*
Y19000D02*
D03*
Y18500D02*
D03*
X24000Y18000D02*
D03*
X21500D02*
D03*
X21500Y18500D02*
D03*
Y19000D02*
D03*
Y19500D02*
D03*
X21500Y20000D02*
D03*
D95*
X16750Y16820D02*
D03*
X17400Y16820D02*
D03*
X18050Y16820D02*
D03*
X18700Y16820D02*
D03*
Y19220D02*
D03*
X18050D02*
D03*
X17400D02*
D03*
X16750D02*
D03*
D96*
X28075Y15725D02*
D03*
Y17725D02*
D03*
Y19725D02*
D03*
Y21725D02*
D03*
Y13725D02*
D03*
X28075Y11725D02*
D03*
Y9725D02*
D03*
Y7725D02*
D03*
X43075Y7725D02*
D03*
Y9725D02*
D03*
Y11725D02*
D03*
Y13725D02*
D03*
Y15725D02*
D03*
Y17725D02*
D03*
Y19725D02*
D03*
Y21725D02*
D03*
D97*
X45575Y19140D02*
D03*
Y18300D02*
D03*
X55400Y7050D02*
D03*
Y6210D02*
D03*
X54925Y8950D02*
D03*
Y8110D02*
D03*
D98*
X46800Y19150D02*
D03*
Y20550D02*
D03*
D99*
X56865Y9925D02*
D03*
X56025D02*
D03*
D100*
X43075Y4500D02*
D03*
X55400Y4450D02*
D03*
D101*
X44550Y2975D02*
D03*
X41600D02*
D03*
X53925Y2925D02*
D03*
X56875D02*
D03*
D102*
X63225Y1775D02*
D03*
X63300Y28300D02*
D03*
X1700D02*
D03*
D103*
X48350Y12875D02*
D03*
Y16875D02*
D03*
X50750D02*
D03*
Y12875D02*
D03*
D104*
X64000Y9350D02*
D03*
X64000Y7850D02*
D03*
X64000Y20850D02*
D03*
X64000Y19350D02*
D03*
X64000Y23675D02*
D03*
X64000Y22175D02*
D03*
D105*
X3500Y26500D02*
D03*
X61500D02*
D03*
X61500Y3500D02*
D03*
X3500D02*
D03*
D106*
X20400Y15600D02*
D03*
X11450Y4550D02*
D03*
X14725Y1275D02*
D03*
X15750Y2350D02*
D03*
X25400Y20450D02*
D03*
X20925Y22025D02*
D03*
X22175Y22325D02*
D03*
D107*
X20140Y1500D02*
D03*
D108*
X17600D02*
D03*
D109*
X55360Y26500D02*
D03*
X9640D02*
D03*
D110*
X8370Y27770D02*
D03*
Y25230D02*
D03*
X10910D02*
D03*
Y27770D02*
D03*
X13450Y25230D02*
D03*
Y27770D02*
D03*
X15990Y25230D02*
D03*
Y27770D02*
D03*
X18530Y25230D02*
D03*
Y27770D02*
D03*
X21070Y25230D02*
D03*
Y27770D02*
D03*
X23610Y25230D02*
D03*
Y27770D02*
D03*
X26150Y25230D02*
D03*
Y27770D02*
D03*
X28690Y25230D02*
D03*
Y27770D02*
D03*
X31230Y25230D02*
D03*
Y27770D02*
D03*
X33770Y25230D02*
D03*
Y27770D02*
D03*
X36310Y25230D02*
D03*
Y27770D02*
D03*
X38850Y25230D02*
D03*
Y27770D02*
D03*
X41390Y25230D02*
D03*
Y27770D02*
D03*
X43930Y25230D02*
D03*
Y27770D02*
D03*
X46470Y25230D02*
D03*
Y27770D02*
D03*
X49010Y25230D02*
D03*
Y27770D02*
D03*
X51550Y25230D02*
D03*
Y27770D02*
D03*
X54090Y25230D02*
D03*
Y27770D02*
D03*
X56630Y25230D02*
D03*
Y27770D02*
D03*
M02*
