G04 Layer_Color=8421504*
%FSLAX43Y43*%
%MOMM*%
G71*
G01*
G75*
%ADD10R,0.700X0.700*%
%ADD11C,0.125*%
%ADD12R,0.300X0.800*%
%ADD13R,0.800X0.300*%
%ADD14R,2.400X2.400*%
%ADD15R,0.750X0.250*%
%ADD16R,0.250X0.750*%
%ADD17R,3.400X1.500*%
%ADD18R,3.500X1.000*%
%ADD19R,0.550X1.700*%
%ADD20R,1.000X0.900*%
%ADD21R,0.600X0.500*%
%ADD22R,0.600X0.600*%
%ADD23R,0.525X0.510*%
%ADD24R,0.900X1.000*%
%ADD25R,0.500X0.600*%
%ADD26R,0.600X0.900*%
%ADD27R,0.450X0.320*%
%ADD28R,0.320X0.450*%
%ADD29R,0.510X0.525*%
%ADD30R,0.450X0.750*%
%ADD31R,0.600X0.600*%
%ADD32R,0.530X0.250*%
%ADD33R,0.300X0.580*%
%ADD34R,0.400X0.500*%
%ADD35R,0.500X0.400*%
%ADD36R,1.350X1.550*%
%ADD37R,0.600X0.250*%
%ADD38R,0.272X0.400*%
%ADD39R,0.400X0.272*%
%ADD40R,0.450X0.900*%
%ADD41R,3.000X1.200*%
%ADD42R,0.540X0.500*%
%ADD43R,0.900X0.800*%
%ADD44R,0.500X0.540*%
%ADD45R,1.000X1.050*%
%ADD46R,1.050X2.200*%
%ADD47R,1.200X1.800*%
%ADD48R,0.900X0.700*%
D10*
X4100Y20450D02*
D03*
Y19550D02*
D03*
X5000Y20450D02*
D03*
X5000Y19550D02*
D03*
D11*
X4900Y32750D02*
Y31750D01*
X5233Y32083D01*
X5566Y31750D01*
Y32750D01*
X6066Y32416D02*
X6400D01*
X6566Y32250D01*
Y31750D01*
X6066D01*
X5900Y31917D01*
X6066Y32083D01*
X6566D01*
X6899Y31750D02*
X7233D01*
X7066D01*
Y32750D01*
X6899D01*
X7732Y32416D02*
Y31750D01*
Y32083D01*
X7899Y32250D01*
X8066Y32416D01*
X8232D01*
X8732D02*
Y31917D01*
X8899Y31750D01*
X9399D01*
Y32416D01*
X9732Y31750D02*
X10232D01*
X10398Y31917D01*
X10232Y32083D01*
X9898D01*
X9732Y32250D01*
X9898Y32416D01*
X10398D01*
X10731Y31750D02*
Y31917D01*
X10898D01*
Y31750D01*
X10731D01*
X12231Y32583D02*
X12064Y32750D01*
X11731D01*
X11565Y32583D01*
Y31917D01*
X11731Y31750D01*
X12064D01*
X12231Y31917D01*
Y32250D01*
X11898D01*
X12564Y32750D02*
X13231D01*
X12897D01*
Y31750D01*
X13564D02*
Y32750D01*
X14064D01*
X14230Y32583D01*
Y32250D01*
X14064Y32083D01*
X13564D01*
D12*
X56750Y17000D02*
D03*
X56250D02*
D03*
X55750D02*
D03*
X55250D02*
D03*
X54750D02*
D03*
Y13000D02*
D03*
X55250D02*
D03*
X55750D02*
D03*
X56250D02*
D03*
X56750D02*
D03*
D13*
X53750Y16000D02*
D03*
Y15500D02*
D03*
Y15000D02*
D03*
Y14500D02*
D03*
Y14000D02*
D03*
X57750D02*
D03*
Y14500D02*
D03*
Y15000D02*
D03*
Y15500D02*
D03*
Y16000D02*
D03*
D14*
X55750Y15000D02*
D03*
D15*
X3050Y19250D02*
D03*
Y19750D02*
D03*
X6050Y19750D02*
D03*
Y19250D02*
D03*
Y20250D02*
D03*
Y20750D02*
D03*
X3050D02*
D03*
X3050Y20250D02*
D03*
D16*
X3800Y18500D02*
D03*
X4300D02*
D03*
X4800D02*
D03*
X5300D02*
D03*
Y21500D02*
D03*
X4800Y21500D02*
D03*
X4300D02*
D03*
X3800D02*
D03*
D17*
X5250Y14750D02*
D03*
X5250Y8250D02*
D03*
D18*
X11000Y10500D02*
D03*
Y12500D02*
D03*
D19*
X61825Y14450D02*
D03*
D20*
X62450Y12400D02*
D03*
X64050D02*
D03*
Y16500D02*
D03*
X62450D02*
D03*
D21*
X975Y21325D02*
D03*
X1975D02*
D03*
D22*
Y20525D02*
D03*
X975D02*
D03*
X1975Y19675D02*
D03*
X975D02*
D03*
X925Y18000D02*
D03*
X1925D02*
D03*
X2525Y17100D02*
D03*
X3525D02*
D03*
X7100Y18600D02*
D03*
X8100D02*
D03*
X7100Y17700D02*
D03*
X8100D02*
D03*
X8100Y19600D02*
D03*
X7100D02*
D03*
X14400Y17425D02*
D03*
X13400D02*
D03*
Y16525D02*
D03*
X14400D02*
D03*
X16475Y15625D02*
D03*
X15475D02*
D03*
X21700Y10700D02*
D03*
X22700D02*
D03*
X10175Y3000D02*
D03*
X11175D02*
D03*
X23600Y16700D02*
D03*
X24600D02*
D03*
X47800Y22425D02*
D03*
X46800D02*
D03*
X58850Y14325D02*
D03*
X59850Y14325D02*
D03*
X63300Y10350D02*
D03*
X64300D02*
D03*
X63300Y6850D02*
D03*
X64300D02*
D03*
X63300Y17625D02*
D03*
X64300D02*
D03*
X56125Y23025D02*
D03*
X57125Y23025D02*
D03*
D23*
X1855Y18825D02*
D03*
X975Y18825D02*
D03*
X18125Y15625D02*
D03*
X19005D02*
D03*
X16175Y4550D02*
D03*
X17055D02*
D03*
X21700Y7400D02*
D03*
X22580Y7400D02*
D03*
X23250Y21275D02*
D03*
X24130D02*
D03*
X53595Y18825D02*
D03*
X54475Y18825D02*
D03*
Y18000D02*
D03*
X53595D02*
D03*
X56300Y19500D02*
D03*
X55420D02*
D03*
Y18650D02*
D03*
X56300D02*
D03*
X57705Y11800D02*
D03*
X56825D02*
D03*
X57155Y7050D02*
D03*
X56275D02*
D03*
X54045Y9925D02*
D03*
X54925D02*
D03*
X53020Y11925D02*
D03*
X53900D02*
D03*
X51845Y14375D02*
D03*
X52725D02*
D03*
X53570Y6125D02*
D03*
X54450Y6125D02*
D03*
D24*
X9800Y21100D02*
D03*
X8100D02*
D03*
D25*
X6375Y23475D02*
D03*
Y22475D02*
D03*
X13750Y13500D02*
D03*
X13750Y12500D02*
D03*
X45575Y14425D02*
D03*
Y15425D02*
D03*
D26*
X11325Y20175D02*
D03*
X12275D02*
D03*
X13225D02*
D03*
X13225Y22675D02*
D03*
X11325Y22675D02*
D03*
D27*
X12825Y18875D02*
D03*
X11325Y18875D02*
D03*
X12450Y17430D02*
D03*
X10950D02*
D03*
X13750Y11000D02*
D03*
X15250D02*
D03*
X60100Y22975D02*
D03*
X61600D02*
D03*
D28*
X15475Y17600D02*
D03*
Y19100D02*
D03*
X16450Y11000D02*
D03*
Y9500D02*
D03*
X61250Y19600D02*
D03*
Y18100D02*
D03*
X59200Y21775D02*
D03*
Y23275D02*
D03*
D29*
X17325Y15625D02*
D03*
Y14745D02*
D03*
X16450Y12075D02*
D03*
Y12955D02*
D03*
X20500Y20000D02*
D03*
Y20880D02*
D03*
X18200Y20425D02*
D03*
X18200Y21305D02*
D03*
X58850Y16030D02*
D03*
X58850Y15150D02*
D03*
X58750Y13305D02*
D03*
X58750Y12425D02*
D03*
X55975Y11800D02*
D03*
X55975Y10920D02*
D03*
X56025Y8975D02*
D03*
X56025Y8095D02*
D03*
X55025Y11800D02*
D03*
Y10920D02*
D03*
X51850Y13500D02*
D03*
Y12620D02*
D03*
Y15675D02*
D03*
Y16555D02*
D03*
D30*
X20200Y12075D02*
D03*
X19300D02*
D03*
X18400D02*
D03*
X17500D02*
D03*
X17500Y13275D02*
D03*
X18400Y13275D02*
D03*
X19300Y13275D02*
D03*
X20200Y13275D02*
D03*
D31*
X14075Y6275D02*
D03*
Y7275D02*
D03*
X17100Y6400D02*
D03*
Y5400D02*
D03*
X10175Y4725D02*
D03*
X10175Y5725D02*
D03*
X8600Y2175D02*
D03*
Y1175D02*
D03*
X12275Y3000D02*
D03*
Y2000D02*
D03*
X19500Y8750D02*
D03*
Y7750D02*
D03*
X20500Y7875D02*
D03*
Y6875D02*
D03*
X62800Y19500D02*
D03*
Y18500D02*
D03*
Y22425D02*
D03*
Y23425D02*
D03*
D32*
X14720Y3550D02*
D03*
X13450Y5050D02*
D03*
Y4550D02*
D03*
Y4050D02*
D03*
Y3550D02*
D03*
X14720Y4050D02*
D03*
Y4550D02*
D03*
Y5050D02*
D03*
D33*
X14085Y3440D02*
D03*
Y5160D02*
D03*
D34*
X9100Y5425D02*
D03*
X8100D02*
D03*
X8600Y4125D02*
D03*
D35*
X9800Y2175D02*
D03*
Y1175D02*
D03*
X11100Y1675D02*
D03*
X61250Y21350D02*
D03*
Y20350D02*
D03*
X62550Y20850D02*
D03*
D36*
X23150Y9000D02*
D03*
D37*
X21700Y9250D02*
D03*
X21700Y8750D02*
D03*
Y8250D02*
D03*
X24600D02*
D03*
X24600Y8750D02*
D03*
Y9250D02*
D03*
Y9750D02*
D03*
X21700Y9750D02*
D03*
D38*
X23250Y20250D02*
D03*
Y17750D02*
D03*
X22750D02*
D03*
X22250D02*
D03*
X22750Y20250D02*
D03*
X22250D02*
D03*
D39*
X24000Y20000D02*
D03*
X24000Y19500D02*
D03*
Y19000D02*
D03*
Y18500D02*
D03*
X24000Y18000D02*
D03*
X21500D02*
D03*
X21500Y18500D02*
D03*
Y19000D02*
D03*
Y19500D02*
D03*
X21500Y20000D02*
D03*
D40*
X16750Y16820D02*
D03*
X17400Y16820D02*
D03*
X18050Y16820D02*
D03*
X18700Y16820D02*
D03*
Y19220D02*
D03*
X18050D02*
D03*
X17400D02*
D03*
X16750D02*
D03*
D41*
X28075Y15725D02*
D03*
Y17725D02*
D03*
Y19725D02*
D03*
Y21725D02*
D03*
Y13725D02*
D03*
X28075Y11725D02*
D03*
Y9725D02*
D03*
Y7725D02*
D03*
X43075Y7725D02*
D03*
Y9725D02*
D03*
Y11725D02*
D03*
Y13725D02*
D03*
Y15725D02*
D03*
Y17725D02*
D03*
Y19725D02*
D03*
Y21725D02*
D03*
D42*
X45575Y19140D02*
D03*
Y18300D02*
D03*
X55400Y7050D02*
D03*
Y6210D02*
D03*
X54925Y8950D02*
D03*
Y8110D02*
D03*
D43*
X46800Y19150D02*
D03*
Y20550D02*
D03*
D44*
X56865Y9925D02*
D03*
X56025D02*
D03*
D45*
X43075Y4500D02*
D03*
X55400Y4450D02*
D03*
D46*
X44550Y2975D02*
D03*
X41600D02*
D03*
X53925Y2925D02*
D03*
X56875D02*
D03*
D47*
X48350Y12875D02*
D03*
Y16875D02*
D03*
X50750D02*
D03*
Y12875D02*
D03*
D48*
X64000Y9350D02*
D03*
X64000Y7850D02*
D03*
X64000Y20850D02*
D03*
X64000Y19350D02*
D03*
X64000Y23675D02*
D03*
X64000Y22175D02*
D03*
M02*
